<svg xmlns="http://www.w3.org/2000/svg" width="800" height="600" viewBox="0 0 211.667 158.75">
    <g transform="translate(-18.22 -134.779)">
        <g fill="#333">
            <path d="M102.726 243.343a3.018 3.018 0 0 0-3.024 3.024v6.08h6.95v-6.08a3.017 3.017 0 0 0-3.024-3.024zM115.426 243.343a3.018 3.018 0 0 0-3.024 3.024v6.08h6.95v-6.08a3.017 3.017 0 0 0-3.024-3.024z" />
        </g>
        <path d="M98.374 218.087a5.657 5.657 0 0 0-5.67 5.67v21.159h31.526v-21.159a5.657 5.657 0 0 0-5.67-5.67z" fill="#4d4d4d" />
        <path fill="#ab3b3b" d="M92.723 243.026h18.296v1.89H92.723z" />
        <path d="M114.846 223.569a24.72 54.286 0 0 1-5.164 21.347h14.004a19.153 42.06 0 0 1-8.84-21.347z" fill="#333" />
        <rect ry="2.005" rx="2.005" y="214.079" x="95.972" height="4.009" width="24.99" fill="#c83737" />
        <path d="M116.627 219.553a2.566 2.566 0 0 1 2.573 2.572v5.627h-2.7v-.007a2.563 2.563 0 0 1-2.444-2.566V219.553h2.444v.007c.042-.003.084-.007.127-.007z"
            fill="#ac5353" />
        <path d="M112.09 219.553a3.017 3.017 0 0 0-3.024 3.024V229.19h3.174v-.008a3.014 3.014 0 0 0 2.874-3.016v-6.614h-2.874v.007c-.05-.002-.1-.007-.15-.007z"
            fill="#bb6868" />
        <circle r="2.74" cy="218.625" cx="114.252" fill="#ec7e7e" />
        <g>
            <path d="M123.913 178.742a4.63 4.63 0 0 1 4.63 4.63 4.63 4.63 0 0 1-.476 2.04 3.685 3.685 0 0 1 2.367 3.44 3.685 3.685 0 0 1-3.224 3.654 5.103 5.103 0 0 1 .01.221 5.103 5.103 0 0 1-5.102 5.103 5.103 5.103 0 0 1-4.659-3.032 6.71 6.71 0 0 1-.16.008 6.71 6.71 0 0 1-6.709-6.71 6.71 6.71 0 0 1 6.709-6.709 6.71 6.71 0 0 1 2.267.402 4.63 4.63 0 0 1 4.347-3.047z"
                fill="#e6e6e6" />
            <path d="M108.539 175.861a15.274 15.274 0 0 0-15.308 15.308v19.466a3.771 3.771 0 0 0 3.78 3.78h23.056a3.771 3.771 0 0 0 3.78-3.78V191.17c0-8.48-6.828-15.308-15.308-15.308z"
                fill="#edb789" />
            <g transform="translate(25.875 -3.437)">
                <rect ry="2.079" rx="2.079" y="193.435" x="79.488" height="5.859" width="4.158" />
                <rect width="4.158" height="5.859" x="89.013" y="193.435" rx="2.079" ry="2.079" />
            </g>
            <path d="M94.863 178.507a4.243 4.243 0 0 0-4.243 4.243 4.243 4.243 0 0 0 .002.05 3.337 3.337 0 0 0-3.243 3.334 3.337 3.337 0 0 0 1.253 2.602 4.386 4.386 0 0 0-2.016 3.69 4.386 4.386 0 0 0 3.78 4.339 4.91 4.91 0 0 0 4.562 3.098 4.91 4.91 0 0 0 4.91-4.91 4.91 4.91 0 0 0-.01-.3 6.006 6.006 0 0 0 4.014-5.659 6.006 6.006 0 0 0-4.785-5.88 4.243 4.243 0 0 0 .018-.364 4.243 4.243 0 0 0-4.242-4.243z"
                fill="#e6e6e6" />
            <path d="M107.595 178.545c.392.68.263 1.865-.519 1.936-1.123.103-1.87.48-2.782 1.606-.495.61-1.544.162-1.937-.518-.392-.68.017-1.333.52-1.937.697-.839 1.665-1.398 2.782-1.606.772-.144 1.543-.161 1.936.519z"
                fill="#fff" fill-opacity=".328" />
            <path d="M108.95 202.294a3.423 3.756-5.62 0 0-2.803 2.258 4.754 5.217-5.62 0 0-1.253-.064 4.754 5.217-5.62 0 0-4.22 5.657A4.754 5.217-5.62 0 0 104 214.63a4.469 4.904-5.62 0 0-.426 2.65 4.469 4.904-5.62 0 0 4.84 4.447 3.613 3.965-5.62 0 0-.032 1.073 3.613 3.965-5.62 0 0 3.984 3.593 3.613 3.965-5.62 0 0 .504-.094 2.805 3.078-5.62 0 0 .012.406 2.805 3.078-5.62 0 0 3.092 2.788 2.805 3.078-5.62 0 0 2.49-3.338 2.805 3.078-5.62 0 0-.612-1.62 3.518 3.86-5.62 0 0 2.536-4.074 3.518 3.86-5.62 0 0-.612-1.796 3.28 3.6-5.62 0 0 1.048-3.013 3.28 3.6-5.62 0 0-.45-1.465 4.754 5.217-5.62 0 0 2.249-4.955 4.754 5.217-5.62 0 0-4.784-4.746 3.423 3.756-5.62 0 0-3.642-2.708 3.423 3.756-5.62 0 0-2.49 1.615 3.423 3.756-5.62 0 0-2.756-1.098zm7.696 27.761a.95 1.043-5.62 0 0-.844 1.132.95 1.043-5.62 0 0 1.049.945.95 1.043-5.62 0 0 .844-1.131.95 1.043-5.62 0 0-1.049-.946z"
                fill="#e6e6e6" />
            <g transform="matrix(.33333 0 0 .33333 62.43 141.76)">
                <rect ry="5.212" rx="5.212" y="200.248" x="140.584" height="10.424" width="20.847" fill="#e37464" />
                <path d="M141.308 202.921a5.2 5.2 0 0 0-.657 2.54 5.2 5.2 0 0 0 5.211 5.21h6.692a5.2 5.2 0 0 0 .658-2.538 5.2 5.2 0 0 0-5.211-5.212z"
                    fill="#dd404e" />
            </g>
            <g transform="translate(24.817 -3.437)" fill-opacity=".124">
                <rect ry=".401" rx=".338" y="186.217" x="83.321" height=".802" width="7.183" />
                <rect width="6.44" height=".802" x="84.077" y="189.335" rx=".303" ry=".401" />
                <rect ry=".401" rx=".401" y="187.748" x="85.665" height=".802" width="4.172" />
            </g>
        </g>
        <g>
            <g transform="rotate(45 30.72 313.772)">
                <circle cx="28.9" cy="180.308" r="4.557" fill="#916f6f" />
                <circle r=".918" cy="178.573" cx="26.574" fill="#d1b2b2" />
            </g>
            <g fill="#713b1e">
                <path d="M119.695 222.784c-.68-.68-1.7-.758-2.285-.172l-2.735 2.735a1.403 1.207 45 0 0-1.45.15 1.403 1.207 45 0 0-.15 1.45l-8.324 8.324a2.268 1.95 45 0 0-2.664.045 2.268 1.95 45 0 0-.045 2.665l-6.898 6.897c-.585.586-.509 1.605.172 2.285.68.68 1.7.758 2.285.172l13.078-13.078a1.403 1.207 45 0 0 1.575-.078 1.403 1.207 45 0 0 .077-1.574l7.536-7.536c.586-.586.509-1.605-.172-2.285z" />
                <path d="M114.044 219.132l4.008-5.989 1.272 5.917 4.93-1.342-1.146 5.024 5.856.935-5.784 4.345z" />
            </g>
        </g>
        <circle r="3.608" cy="235.149" cx="108.111" fill="#edb789" />
        <g transform="translate(-5.292 -10.205)">
            <animateTransform attributeName="transform" begin="0s" dur="3s" type="translate" values="0 0;0 -4;0 0;"
                repeatCount="indefinite" />
            <circle cx="148.354" cy="201.939" r="5.197" fill="#87de87" />
            <circle r="3.969" cy="201.939" cx="148.354" fill="#37c837" />
            <circle cx="148.354" cy="201.939" r="2.362" fill="#217821" />
        </g>
        <g transform="translate(-10.583 -1.512)">
            <animateTransform attributeName="transform" begin="-1s" dur="3s" type="translate" values="0 0;3 -6;0 0;"
                repeatCount="indefinite" />
            <circle cx="155.159" cy="219.704" r="4.063" fill="#ffe680" />
            <circle r="3.103" cy="219.704" cx="155.159" fill="#fc0" />
            <circle cx="155.159" cy="219.704" r="1.847" fill="#d4aa00" />
        </g>
        <g transform="translate(17.765 -36.286)">
            <animateTransform attributeName="transform" begin="-2s" dur="3s" type="translate" values="0 -18;2 -22;0 -18;"
                repeatCount="indefinite" />
            <circle cx="140.796" cy="239.17" r="2.929" fill="#faa" />
            <circle r="2.237" cy="239.17" cx="140.796" fill="#f55" />
            <circle cx="140.796" cy="239.17" r=".954" fill="red" />
        </g>
    </g>
</svg>