<?xml version="1.0" encoding="utf-8"?>
<!-- Generator: Adobe Illustrator 16.0.0, SVG Export Plug-In . SVG Version: 6.00 Build 0)  -->
<!DOCTYPE svg PUBLIC "-//W3C//DTD SVG 1.1//EN" "http://www.w3.org/Graphics/SVG/1.1/DTD/svg11.dtd">
<svg version="1.1" xmlns="http://www.w3.org/2000/svg" xmlns:xlink="http://www.w3.org/1999/xlink" x="0px" y="0px"
	 width="1167.117px" height="1167.117px" viewBox="0 0 1167.117 1167.117" enable-background="new 0 0 1167.117 1167.117"
	 xml:space="preserve">
<g id="Layer_1" display="none">
	<rect x="339.354" y="530.164" display="inline" fill="#1F1811" width="425.341" height="136.36"/>
	<rect x="347.466" y="539.218" display="inline" fill="#FFE80C" width="405.694" height="88.68"/>
	<polygon display="inline" fill="#1F1811" points="764.615,629.053 695.974,629.053 695.974,629.051 660.845,629.051 
		660.845,657.418 645.654,629.051 614.482,629.051 614.482,629.053 558.653,629.053 545.76,629.053 489.929,629.053 
		477.077,629.053 420.849,629.053 408.353,629.053 339.354,629.053 339.354,735.356 374.482,735.356 374.482,706.942 
		389.668,735.356 408.353,735.356 427.421,735.356 477.188,735.356 489.819,735.356 545.76,735.356 558.544,735.356 
		614.482,735.356 627.251,735.356 649.609,735.356 649.609,706.991 664.8,735.356 683.121,735.356 695.974,735.356 764.587,735.356 
		764.587,699.452 747.664,681.776 764.615,681.776 764.615,670.856 764.695,670.856 764.695,638.913 	"/>
	<rect x="668.009" y="638.7" display="inline" fill="#EFEFEF" width="1.932" height="63.199"/>
	<rect x="711.427" y="660.782" display="inline" fill="#B6B1AC" width="27.127" height="1.186"/>
	<rect x="348.472" y="638.7" display="inline" fill="#DDDCDD" width="61.853" height="22.082"/>
	<rect x="348.581" y="638.694" display="inline" fill="#DDDCDD" width="61.634" height="22.088"/>
	<rect x="348.581" y="670.942" display="inline" fill="#DDDCDD" width="61.634" height="22.09"/>
	<rect x="348.472" y="638.694" display="inline" fill="#DDDCDD" width="15.406" height="86.586"/>
	<rect x="394.835" y="638.694" display="inline" fill="#DDDCDD" width="15.38" height="50.104"/>
	<polygon display="inline" fill="#DDDCDD" points="376.613,691.183 392.06,691.183 410.243,725.28 394.835,725.28 	"/>
	<rect x="417.472" y="638.7" display="inline" fill="#DDDCDD" width="61.853" height="22.082"/>
	<rect x="417.581" y="638.694" display="inline" fill="#DDDCDD" width="61.635" height="22.088"/>
	<rect x="417.581" y="670.942" display="inline" fill="#DDDCDD" width="61.635" height="22.09"/>
	<rect x="506.075" y="651.17" display="inline" fill="#DDDCDD" width="22.09" height="61.633"/>
	<rect x="417.581" y="703.196" display="inline" fill="#DDDCDD" width="61.635" height="22.084"/>
	<rect x="417.472" y="638.694" display="inline" fill="#DDDCDD" width="15.407" height="86.586"/>
	<rect x="486.193" y="638.7" display="inline" fill="#DDDCDD" width="61.854" height="22.082"/>
	<rect x="486.303" y="638.694" display="inline" fill="#DDDCDD" width="61.638" height="22.088"/>
	<rect x="486.303" y="703.196" display="inline" fill="#DDDCDD" width="61.638" height="22.084"/>
	<rect x="554.872" y="638.7" display="inline" fill="#DDDCDD" width="61.856" height="22.082"/>
	<rect x="554.982" y="638.694" display="inline" fill="#DDDCDD" width="61.634" height="22.088"/>
	<rect x="585.802" y="670.942" display="inline" fill="#DDDCDD" width="30.814" height="22.09"/>
	<rect x="554.982" y="703.196" display="inline" fill="#DDDCDD" width="61.634" height="22.084"/>
	<rect x="554.872" y="638.694" display="inline" fill="#DDDCDD" width="15.41" height="86.586"/>
	<rect x="601.236" y="670.942" display="inline" fill="#DDDCDD" width="15.41" height="54.338"/>
	<rect x="623.599" y="638.694" display="inline" fill="#DDDCDD" width="15.406" height="86.586"/>
	<rect x="669.958" y="638.694" display="inline" fill="#DDDCDD" width="15.412" height="86.586"/>
	<polygon display="inline" fill="#DDDCDD" points="623.599,638.7 639.005,638.694 685.371,725.28 669.958,725.28 	"/>
	<rect x="692.238" y="638.7" display="inline" fill="#DDDCDD" width="61.852" height="22.082"/>
	<rect x="692.347" y="638.694" display="inline" fill="#DDDCDD" width="61.633" height="22.088"/>
	<rect x="692.347" y="703.196" display="inline" fill="#DDDCDD" width="61.633" height="22.084"/>
	<rect x="692.238" y="693.032" display="inline" fill="#DDDCDD" width="15.404" height="32.248"/>
	<polygon display="inline" fill="#DDDCDD" points="692.238,660.782 712.433,659.793 753.98,703.196 733.798,703.754 	"/>
	<rect x="348.581" y="638.7" display="inline" fill="#EFEFEF" width="61.66" height="3.192"/>
	<rect x="417.568" y="638.7" display="inline" fill="#EFEFEF" width="61.662" height="3.192"/>
	<rect x="486.29" y="638.7" display="inline" fill="#EFEFEF" width="61.662" height="3.192"/>
	<rect x="554.97" y="638.7" display="inline" fill="#EFEFEF" width="61.663" height="3.192"/>
	<rect x="692.277" y="638.696" display="inline" fill="#EFEFEF" width="61.664" height="3.196"/>
	<rect x="692.333" y="692.622" display="inline" fill="#FFFEF8" width="15.311" height="3.197"/>
	<polygon display="inline" fill="#EFEFEF" points="640.72,641.893 623.652,641.893 623.652,638.7 639.005,638.694 	"/>
	<polygon display="inline" fill="#EFEFEF" points="685.371,641.893 669.96,641.893 669.96,638.7 685.312,638.694 	"/>
	<polygon display="inline" fill="#EFEFEF" points="733.39,706.952 707.644,706.952 707.644,703.754 733.3,703.754 	"/>
	<polygon display="inline" fill="#EFEFEF" points="601.236,706.952 570.282,706.952 570.282,703.754 601.126,703.754 	"/>
	<polygon display="inline" fill="#EFEFEF" points="548.159,706.952 528.431,706.952 528.431,703.754 548.089,703.754 	"/>
	<polygon display="inline" fill="#EFEFEF" points="506.053,706.952 486.327,706.952 486.327,703.754 505.985,703.754 	"/>
	<polygon display="inline" fill="#EFEFEF" points="479.395,706.952 432.879,706.952 432.879,703.754 479.23,703.754 	"/>
	<polygon display="inline" fill="#EFEFEF" points="479.327,673.893 432.81,673.893 432.81,670.696 479.161,670.694 	"/>
	<polygon display="inline" fill="#EFEFEF" points="616.716,673.893 585.759,673.893 585.759,670.696 616.603,670.694 	"/>
	<rect x="486.303" y="660.782" display="inline" fill="#B6B1AC" width="19.774" height="1.186"/>
	<rect x="528.165" y="660.782" display="inline" fill="#B6B1AC" width="19.774" height="1.186"/>
	<rect x="570.282" y="660.782" display="inline" fill="#B6B1AC" width="46.334" height="1.186"/>
	<rect x="585.802" y="693.032" display="inline" fill="#B6B1AC" width="15.41" height="1.188"/>
	<rect x="361.126" y="690.067" display="inline" fill="#E5E5E5" width="2.755" height="35.213"/>
	<polygon display="inline" fill="#E5E5E5" points="396.645,722.086 379.397,690.067 375.936,690.067 394.821,725.28 	"/>
	<rect x="599.281" y="694.219" display="inline" fill="#FFFEF8" width="1.932" height="9.535"/>
	<rect x="504.124" y="661.967" display="inline" fill="#EFEFEF" width="1.929" height="41.787"/>
	<polygon display="inline" fill="#84764F" points="407.696,690.067 410.217,693.032 410.323,638.694 407.88,641.889 	"/>
	<rect x="363.881" y="660.782" display="inline" fill="#84764F" width="30.954" height="1.186"/>
	<rect x="432.921" y="660.782" display="inline" fill="#84764F" width="46.295" height="1.186"/>
	<polygon display="inline" fill="#84764F" points="363.878,725.28 348.472,725.28 351.227,722.086 361.31,722.086 	"/>
	<polygon display="inline" fill="#84764F" points="410.229,725.28 394.821,725.28 396.645,722.086 408.54,722.086 	"/>
	<rect x="417.472" y="722.086" display="inline" fill="#84764F" width="61.855" height="3.193"/>
	<rect x="486.193" y="722.086" display="inline" fill="#84764F" width="61.854" height="3.193"/>
	<rect x="554.872" y="722.086" display="inline" fill="#84764F" width="61.856" height="3.193"/>
	<rect x="623.556" y="722.086" display="inline" fill="#84764F" width="15.451" height="3.193"/>
	<rect x="669.941" y="722.086" display="inline" fill="#84764F" width="15.447" height="3.193"/>
	<rect x="692.214" y="722.086" display="inline" fill="#84764F" width="61.766" height="3.193"/>
	<rect x="432.921" y="661.967" display="inline" fill="#84764F" width="1.929" height="8.873"/>
	<rect x="527.445" y="661.967" display="inline" fill="#84764F" width="1.931" height="41.787"/>
	<rect x="570.282" y="661.094" display="inline" fill="#84764F" width="1.932" height="41.787"/>
	<rect x="432.921" y="693.032" display="inline" fill="#84764F" width="1.929" height="10.723"/>
	<rect x="363.881" y="661.967" display="inline" fill="#84764F" width="1.929" height="8.728"/>
	<rect x="417.472" y="641.893" display="inline" fill="#EFEFEF" width="2.752" height="80.193"/>
	<rect x="486.327" y="641.893" display="inline" fill="#EFEFEF" width="2.753" height="18.89"/>
	<rect x="623.652" y="641.893" display="inline" fill="#EFEFEF" width="2.752" height="80.193"/>
	<rect x="692.349" y="640.297" display="inline" fill="#EFEFEF" width="2.752" height="20.408"/>
	<rect x="692.349" y="692.987" display="inline" fill="#FFFEF8" width="2.752" height="29.1"/>
	<rect x="486.213" y="706.952" display="inline" fill="#FFFEF8" width="2.848" height="15.135"/>
	<rect x="347.911" y="625.979" display="inline" fill="#84764F" width="405.696" height="3.385"/>
	<polygon display="inline" fill="#21170E" points="434.803,570.095 417.573,570.095 417.573,555.022 409.675,555.022 
		409.675,570.095 393.884,570.095 393.884,577.271 409.675,577.271 409.675,612.094 417.573,612.094 417.573,577.271 
		434.803,577.271 	"/>
	<polygon display="inline" fill="#21170E" points="533.671,554.814 525.407,556.584 493.536,588.456 485.128,580.044 
		479.224,585.946 487.634,594.356 478.483,603.506 484.977,609.999 494.124,600.852 503.126,609.854 509.031,603.95 
		500.027,594.946 531.9,563.076 	"/>
	<path display="inline" fill="#1E1E1C" d="M613.16,577.619l-14.66-5.861c2.072-1.481,3.428-3.908,3.428-6.648
		c0-4.521-3.662-8.185-8.182-8.185c-4.518,0-8.184,3.663-8.184,8.185c0,2.729,1.346,5.142,3.402,6.63l-15.111,6.045l1.119,5.936
		l13.958-3.85v11.54l-10.749,17.817l5.776,0.961l9.603-13.444l9.488,13.285l5.775-0.968l-11-17.651v-11.54l14.207,3.688
		L613.16,577.619z"/>
	<path display="inline" fill="#21170E" d="M689.234,578.732c-5.174-2.136-5.559-3.072-5.559-4.263c0-1.563,1.355-2.498,3.631-2.498
		c3.137,0,5.041,1.088,5.957,1.611l2.408,1.379l3.109-8.208l-1.725-1.011c-1.863-1.089-3.902-1.789-6.189-2.11v-5.688h-8.252v6.207
		c-5.26,1.569-8.553,5.721-8.553,10.999c0,6.827,5.482,9.898,10.824,11.992c4.539,1.839,4.918,3.306,4.918,4.537
		c0,1.933-1.713,3.183-4.369,3.183c-2.369,0-4.924-0.761-6.838-2.037l-2.521-1.683l-2.986,8.334l1.459,1.044
		c1.932,1.38,4.738,2.372,7.668,2.756v5.893h8.311v-6.381c5.428-1.641,8.943-6.059,8.943-11.502
		C699.472,583.863,693.994,580.675,689.234,578.732z"/>
	<g display="inline">
		<polygon fill="#1F1811" points="417.849,553.977 409.951,553.977 409.951,569.049 394.157,569.049 394.157,576.226 
			409.951,576.226 409.951,611.045 417.849,611.045 417.849,576.226 435.076,576.226 435.076,569.049 417.849,569.049 		"/>
		<polygon fill="#1F1811" points="493.812,587.409 485.399,579 479.496,584.901 487.907,593.311 478.76,602.459 485.251,608.952 
			494.401,599.803 503.399,608.805 509.306,602.9 500.304,593.901 532.173,562.028 533.943,553.768 525.681,555.536 		"/>
		<path fill="#1F1811" d="M602.203,564.061c0-4.519-3.664-8.184-8.184-8.184s-8.182,3.665-8.182,8.184
			c0,2.731,1.344,5.145,3.4,6.628l-15.111,6.046l1.122,5.938l13.956-3.852l0.004,11.542l-10.751,17.815l5.777,0.965l9.604-13.444
			l9.488,13.285l5.773-0.966l-10.998-17.655V578.82l14.205,3.688l1.125-5.936l-14.656-5.865
			C600.845,569.226,602.203,566.804,602.203,564.061z"/>
		<path fill="#1F1811" d="M689.507,577.687c-5.17-2.137-5.559-3.073-5.559-4.262c0-1.563,1.357-2.5,3.635-2.5
			c3.135,0,5.041,1.088,5.955,1.613l2.412,1.377l3.104-8.206l-1.725-1.013c-1.863-1.092-3.902-1.79-6.189-2.11v-5.688h-8.252v6.205
			c-5.256,1.573-8.549,5.723-8.549,11.001c0,6.828,5.482,9.896,10.82,11.989c4.541,1.84,4.922,3.31,4.922,4.541
			c0,1.933-1.715,3.178-4.371,3.178c-2.367,0-4.926-0.762-6.836-2.032l-2.527-1.687l-2.982,8.336l1.461,1.041
			c1.93,1.381,4.734,2.373,7.668,2.758v5.892h8.307v-6.377c5.426-1.642,8.947-6.062,8.947-11.506
			C699.748,582.816,694.267,579.628,689.507,577.687z"/>
	</g>
	<g display="inline" opacity="0.1">
		<polygon fill="#84764F" points="411.922,608.911 411.922,574.091 396.129,574.091 396.129,570.854 411.922,570.854 
			411.922,555.782 415.876,555.782 415.876,570.854 433.104,570.854 433.104,574.091 415.876,574.091 415.876,608.911 		"/>
		<polygon fill="#84764F" points="481.547,602.295 490.698,593.146 482.286,584.735 485.399,581.623 493.812,590.032 
			526.664,557.179 531.378,556.171 530.367,560.881 497.514,593.737 506.516,602.739 503.399,605.852 494.401,596.852 
			485.251,605.999 		"/>
		<path fill="#84764F" d="M581.646,606.545l9.531-15.796v-14.682l-14.387,3.969l-0.423-2.236l16.931-6.775l-2.904-2.098
			c-1.617-1.168-2.584-3.051-2.584-5.031c0-3.426,2.785-6.209,6.211-6.209c3.424,0,6.207,2.783,6.207,6.209
			c0,1.993-0.973,3.879-2.602,5.047l-2.928,2.095l16.496,6.602l-0.434,2.269l-14.629-3.802v14.657l9.734,15.631l-1.652,0.275
			l-10.377-14.525l-10.493,14.687L581.646,606.545z"/>
		<path fill="#84764F" d="M684.464,605.987v-5.652l-1.717-0.225c-2.652-0.349-5.125-1.228-6.777-2.406l-0.246-0.176l1.633-4.556
			l0.424,0.281c2.225,1.482,5.191,2.365,7.932,2.365c3.732,0,6.342-2.117,6.342-5.15c0-2.752-1.781-4.596-6.148-6.364
			c-4.992-1.959-9.592-4.538-9.592-10.168c0-4.364,2.67-7.77,7.143-9.108l1.406-0.42v-5.702h4.307v5.431l1.701,0.239
			c2.025,0.285,3.811,0.895,5.467,1.857l0.287,0.17l-1.701,4.486l-0.402-0.229c-0.979-0.558-3.27-1.872-6.936-1.872
			c-4.139,0-5.607,2.409-5.607,4.47c0,2.811,2.094,4.151,6.777,6.087c4.465,1.822,9.021,4.519,9.021,10.729
			c0,4.524-2.891,8.211-7.543,9.617l-1.402,0.424v5.873H684.464z"/>
	</g>
	<g display="inline">
		<polygon opacity="0.2" fill="#84764F" enable-background="new    " points="481.102,893.319 423.892,912.389 353.333,761.737 
			520.95,761.737 509.073,805.26 514.664,842.125 481.737,860.417 		"/>
		<polygon fill="#FFFFFF" points="553.243,1082.485 632.097,1027.391 631.029,923.608 614.437,902.618 614.933,869.897 
			558.182,845.704 		"/>
		<polygon fill="#0D0A07" points="583.559,976.584 599.542,962.625 599.228,932.165 584.615,925.936 		"/>
		<polygon fill="#0D0A07" points="573.388,874.749 585.96,878.463 585.716,839.807 574.22,834.907 		"/>
		<polygon fill="#0D0A07" points="594.365,882.059 606.937,885.772 606.693,847.118 595.197,842.217 		"/>
		<polygon fill="#88898A" points="553.243,1082.485 473.806,1027.391 474.981,912.78 492.39,899.44 493.677,864.528 
			558.182,845.704 		"/>
		<polygon fill="#0D0A07" points="527.03,976.584 509.706,961.456 510.047,928.44 525.885,921.688 		"/>
		<polygon fill="#0D0A07" points="539.122,873.471 526.55,877.186 526.796,838.53 538.292,833.629 		"/>
		<polygon fill="#0D0A07" points="515.993,882.059 503.421,885.772 503.667,847.118 515.161,842.217 		"/>
		<polyline fill="#0D0A07" points="563.585,873.165 557.649,871.254 550.659,873.165 553.243,847.146 558.182,845.704 
			563.585,848.008 563.585,872.106 		"/>
		<g>
			<polygon fill="#B9B5B4" points="430.026,844.299 387.931,1078.063 399.353,1064.428 410.832,1046.321 421.966,1017.692 
				453.765,841.102 431.329,837.063 			"/>
			<polygon fill="#898382" points="464.62,843.057 467.618,826.413 436.411,808.838 431.329,837.063 			"/>
			<polygon fill="#B04D3A" points="453.765,765.315 443.232,765.102 436.803,806.667 446.927,814.758 			"/>
			<polygon fill="#A4A2A3" points="430.003,844.295 387.907,1078.059 381.961,1061.295 377.519,1040.323 377.071,1009.608 
				408.87,833.018 431.308,837.059 			"/>
			<polygon fill="#7E6155" points="398.016,831.063 401.013,814.418 436.389,808.834 431.308,837.059 			"/>
			<polygon fill="#6D3115" points="434.604,765.315 445.284,765.315 436.78,806.663 424.469,810.715 			"/>
		</g>
		<rect x="558.388" y="814.758" fill="#FFFFFF" width="9.435" height="18.871"/>
		<rect x="548.525" y="814.758" fill="#88898A" width="9.436" height="18.871"/>
		<rect x="558.601" y="788.061" fill="#FFFFFF" width="9.437" height="18.871"/>
		<rect x="548.739" y="788.061" fill="#88898A" width="9.434" height="18.871"/>
		<polygon opacity="0.4" fill="#84764F" enable-background="new    " points="619.523,896.897 676.734,915.967 747.292,765.315 
			579.676,765.315 591.55,808.838 585.96,845.704 618.888,863.995 		"/>
	</g>
	<polygon display="inline" fill="#D90A43" points="551.214,296.267 397.783,364.203 401.017,520.069 553.356,520.069 	"/>
	<polygon display="inline" fill="#E94360" points="547.686,297.442 694.228,347.733 698.341,520.069 553.356,520.069 	"/>
	<polygon display="inline" fill="#D90A43" points="693.949,346.453 727.035,408.212 727.035,520.069 691.707,520.069 	"/>
	<polygon display="inline" fill="#E94360" points="398.818,363.231 356.851,424.989 356.851,520.069 403.827,520.069 	"/>
	<g display="inline">
		<polyline fill="#FFFFFF" points="737.347,524.085 728.027,526.654 722.56,545.646 735.406,531.844 748.253,526.654 
			739.505,524.085 		"/>
		<rect x="743.054" y="488.055" fill="#FFFFFF" width="4.326" height="38.601"/>
		<polygon fill="#FFFFFF" points="743.054,526.654 748.253,534.865 742.183,552.894 753.533,541.984 753.533,531.844 
			745.218,520.385 		"/>
		<polygon fill="#F6D256" points="702.333,417.589 681.314,423.805 706.707,437.994 700.146,427.792 		"/>
		<polygon fill="#FDF6C0" points="704.519,415.956 712.994,403.382 722.56,395.729 737.347,397.096 750.992,401.469 
			783.089,417.589 793.109,447.272 815.025,492.215 824.837,516.126 861.33,536.639 821.505,531.844 817.132,564.045 
			796.359,520.385 770.666,506.154 735.406,497.154 713.873,468.525 710.435,450.941 708.347,437.994 703.197,427.792 		"/>
		<polygon fill="#1E1E1C" points="724.15,434.579 726.892,424.307 721.943,412.498 714.25,410.96 711.505,421.232 716.457,433.042 
					"/>
		<polygon fill="#FFFFFF" points="722.675,428.27 724.386,421.86 721.298,414.489 716.498,413.529 714.787,419.94 717.876,427.31 		
			"/>
	</g>
	<polygon display="inline" fill="#FFFFFF" points="548.162,164.295 461.496,186.043 463.943,344.492 548.874,402.771 	"/>
	<polygon display="inline" fill="#88898A" points="548.162,164.295 634.955,185.525 633.458,343.985 548.874,402.771 	"/>
	<path display="inline" fill="#84764F" d="M623.509,62.279c-12.846,0.039-23.229,10.483-23.188,23.328
		c0.023,8.608,4.727,16.104,11.688,20.105l0.09,29.801c-17.924,2.528-35.955,4.019-54.008,4.47l-0.125-42.108
		c6.938-4.042,11.597-11.567,11.569-20.175c-0.039-12.595-10.078-22.813-22.578-23.172l0.445,148.597
		c29.18-0.056,58.353-2.502,87.228-7.345l0.639-90.136c6.938-4.043,11.596-11.566,11.568-20.175
		C646.798,72.624,636.355,62.241,623.509,62.279z"/>
	<path display="inline" fill="#FFE80C" d="M547.833,54.542c-0.25-0.008-0.498-0.018-0.751-0.017
		c-12.846,0.039-23.229,10.483-23.189,23.329c0.026,8.607,4.729,16.104,11.688,20.104l0.127,42.039
		c-17.555-0.43-35.093-1.843-52.531-4.241l-0.088-29.366c6.938-4.042,11.595-11.566,11.568-20.174
		c-0.037-12.846-10.481-23.228-23.327-23.189s-23.229,10.483-23.19,23.328c0.027,8.607,4.729,16.104,11.69,20.104l0.863,89.611
		c28.999,4.771,58.295,7.126,87.584,7.07L547.833,54.542z"/>
	
		<rect x="496.171" y="257.716" transform="matrix(-0.9997 -0.0224 0.0224 -0.9997 999.887 576.6285)" display="inline" fill="#1E1E1C" width="14.002" height="50.001"/>
	
		<rect x="586.191" y="259.408" transform="matrix(-0.9998 -0.0223 0.0223 -0.9998 1179.8883 581.987)" display="inline" fill="#1E1E1C" width="14.002" height="50.003"/>
</g>
<g id="Layer_2">
	<rect x="-730.858" y="520.004" fill="#1F1811" width="425.342" height="136.36"/>
	<rect x="-722.745" y="529.058" fill="#FFE80C" width="405.693" height="88.68"/>
	<polygon fill="#1F1811" points="-305.596,618.893 -374.237,618.893 -374.237,618.891 -409.366,618.891 -409.366,647.258 
		-424.557,618.891 -455.729,618.891 -455.729,618.893 -511.557,618.893 -524.452,618.893 -580.282,618.893 -593.133,618.893 
		-649.362,618.893 -661.858,618.893 -730.858,618.893 -730.858,725.196 -695.729,725.196 -695.729,696.782 -680.543,725.196 
		-661.858,725.196 -642.79,725.196 -593.024,725.196 -580.391,725.196 -524.452,725.196 -511.667,725.196 -455.729,725.196 
		-442.959,725.196 -420.602,725.196 -420.602,696.831 -405.411,725.196 -387.09,725.196 -374.237,725.196 -305.624,725.196 
		-305.624,689.292 -322.547,671.616 -305.596,671.616 -305.596,660.696 -305.516,660.696 -305.516,628.753 	"/>
	<rect x="-402.202" y="628.54" fill="#EFEFEF" width="1.932" height="63.199"/>
	<rect x="-358.784" y="650.622" fill="#B6B1AC" width="27.127" height="1.186"/>
	<rect x="-721.739" y="628.54" fill="#DDDCDD" width="61.852" height="22.082"/>
	<rect x="-721.629" y="628.534" fill="#DDDCDD" width="61.633" height="22.088"/>
	<rect x="-721.629" y="660.782" fill="#DDDCDD" width="61.633" height="22.09"/>
	<rect x="-721.739" y="628.534" fill="#DDDCDD" width="15.406" height="86.586"/>
	<rect x="-675.375" y="628.534" fill="#DDDCDD" width="15.379" height="50.104"/>
	<polygon fill="#DDDCDD" points="-693.598,681.022 -678.151,681.022 -659.967,715.12 -675.375,715.12 	"/>
	<rect x="-652.739" y="628.54" fill="#DDDCDD" width="61.852" height="22.082"/>
	<rect x="-652.629" y="628.534" fill="#DDDCDD" width="61.635" height="22.088"/>
	<rect x="-652.629" y="660.782" fill="#DDDCDD" width="61.635" height="22.09"/>
	<rect x="-564.135" y="641.01" fill="#DDDCDD" width="22.09" height="61.633"/>
	<rect x="-652.629" y="693.036" fill="#DDDCDD" width="61.635" height="22.084"/>
	<rect x="-652.739" y="628.534" fill="#DDDCDD" width="15.406" height="86.586"/>
	<rect x="-584.018" y="628.54" fill="#DDDCDD" width="61.855" height="22.082"/>
	<rect x="-583.909" y="628.534" fill="#DDDCDD" width="61.639" height="22.088"/>
	<rect x="-583.909" y="693.036" fill="#DDDCDD" width="61.639" height="22.084"/>
	<rect x="-515.338" y="628.54" fill="#DDDCDD" width="61.855" height="22.082"/>
	<rect x="-515.229" y="628.534" fill="#DDDCDD" width="61.635" height="22.088"/>
	<rect x="-484.409" y="660.782" fill="#DDDCDD" width="30.814" height="22.09"/>
	<rect x="-515.229" y="693.036" fill="#DDDCDD" width="61.635" height="22.084"/>
	<rect x="-515.338" y="628.534" fill="#DDDCDD" width="15.41" height="86.586"/>
	<rect x="-468.975" y="660.782" fill="#DDDCDD" width="15.41" height="54.338"/>
	<rect x="-446.612" y="628.534" fill="#DDDCDD" width="15.406" height="86.586"/>
	<rect x="-400.252" y="628.534" fill="#DDDCDD" width="15.412" height="86.586"/>
	<polygon fill="#DDDCDD" points="-446.612,628.54 -431.206,628.534 -384.84,715.12 -400.252,715.12 	"/>
	<rect x="-377.973" y="628.54" fill="#DDDCDD" width="61.852" height="22.082"/>
	<rect x="-377.864" y="628.534" fill="#DDDCDD" width="61.633" height="22.088"/>
	<rect x="-377.864" y="693.036" fill="#DDDCDD" width="61.633" height="22.084"/>
	<rect x="-377.973" y="682.872" fill="#DDDCDD" width="15.404" height="32.248"/>
	<polygon fill="#DDDCDD" points="-377.973,650.622 -357.778,649.633 -316.231,693.036 -336.413,693.594 	"/>
	<rect x="-721.629" y="628.54" fill="#EFEFEF" width="61.66" height="3.192"/>
	<rect x="-652.643" y="628.54" fill="#EFEFEF" width="61.662" height="3.192"/>
	<rect x="-583.92" y="628.54" fill="#EFEFEF" width="61.662" height="3.192"/>
	<rect x="-515.241" y="628.54" fill="#EFEFEF" width="61.662" height="3.192"/>
	<rect x="-377.934" y="628.536" fill="#EFEFEF" width="61.664" height="3.196"/>
	<rect x="-377.877" y="682.462" fill="#FFFEF8" width="15.311" height="3.197"/>
	<polygon fill="#EFEFEF" points="-429.491,631.732 -446.559,631.732 -446.559,628.54 -431.206,628.534 	"/>
	<polygon fill="#EFEFEF" points="-384.84,631.732 -400.25,631.732 -400.25,628.54 -384.899,628.534 	"/>
	<polygon fill="#EFEFEF" points="-336.821,696.792 -362.567,696.792 -362.567,693.594 -336.911,693.594 	"/>
	<polygon fill="#EFEFEF" points="-468.975,696.792 -499.928,696.792 -499.928,693.594 -469.084,693.594 	"/>
	<polygon fill="#EFEFEF" points="-522.051,696.792 -541.78,696.792 -541.78,693.594 -522.122,693.594 	"/>
	<polygon fill="#EFEFEF" points="-564.159,696.792 -583.883,696.792 -583.883,693.594 -564.225,693.594 	"/>
	<polygon fill="#EFEFEF" points="-590.817,696.792 -637.333,696.792 -637.333,693.594 -590.981,693.594 	"/>
	<polygon fill="#EFEFEF" points="-590.883,663.732 -637.401,663.732 -637.401,660.536 -591.049,660.534 	"/>
	<polygon fill="#EFEFEF" points="-453.495,663.732 -484.452,663.732 -484.452,660.536 -453.608,660.534 	"/>
	<rect x="-583.909" y="650.622" fill="#B6B1AC" width="19.775" height="1.186"/>
	<rect x="-542.045" y="650.622" fill="#B6B1AC" width="19.773" height="1.186"/>
	<rect x="-499.928" y="650.622" fill="#B6B1AC" width="46.334" height="1.186"/>
	<rect x="-484.409" y="682.872" fill="#B6B1AC" width="15.41" height="1.188"/>
	<rect x="-709.084" y="679.907" fill="#E5E5E5" width="2.754" height="35.213"/>
	<polygon fill="#E5E5E5" points="-673.567,711.926 -690.813,679.907 -694.276,679.907 -675.389,715.12 	"/>
	<rect x="-470.93" y="684.059" fill="#FFFEF8" width="1.932" height="9.535"/>
	<rect x="-566.086" y="651.807" fill="#EFEFEF" width="1.928" height="41.787"/>
	<polygon fill="#84764F" points="-662.514,679.907 -659.995,682.872 -659.887,628.534 -662.331,631.729 	"/>
	<rect x="-706.331" y="650.622" fill="#84764F" width="30.955" height="1.186"/>
	<rect x="-637.29" y="650.622" fill="#84764F" width="46.295" height="1.186"/>
	<polygon fill="#84764F" points="-706.333,715.12 -721.739,715.12 -718.985,711.926 -708.901,711.926 	"/>
	<polygon fill="#84764F" points="-659.983,715.12 -675.389,715.12 -673.567,711.926 -661.67,711.926 	"/>
	<rect x="-652.739" y="711.926" fill="#84764F" width="61.855" height="3.193"/>
	<rect x="-584.018" y="711.926" fill="#84764F" width="61.855" height="3.193"/>
	<rect x="-515.338" y="711.926" fill="#84764F" width="61.855" height="3.193"/>
	<rect x="-446.655" y="711.926" fill="#84764F" width="15.451" height="3.193"/>
	<rect x="-400.27" y="711.926" fill="#84764F" width="15.447" height="3.193"/>
	<rect x="-377.997" y="711.926" fill="#84764F" width="61.766" height="3.193"/>
	<rect x="-637.29" y="651.807" fill="#84764F" width="1.928" height="8.873"/>
	<rect x="-542.766" y="651.807" fill="#84764F" width="1.932" height="41.787"/>
	<rect x="-499.928" y="650.934" fill="#84764F" width="1.932" height="41.787"/>
	<rect x="-637.29" y="682.872" fill="#84764F" width="1.928" height="10.723"/>
	<rect x="-706.331" y="651.807" fill="#84764F" width="1.93" height="8.728"/>
	<rect x="-652.739" y="631.732" fill="#EFEFEF" width="2.752" height="80.193"/>
	<rect x="-583.883" y="631.732" fill="#EFEFEF" width="2.752" height="18.89"/>
	<rect x="-446.559" y="631.732" fill="#EFEFEF" width="2.752" height="80.193"/>
	<rect x="-377.862" y="630.137" fill="#EFEFEF" width="2.752" height="20.408"/>
	<rect x="-377.862" y="682.827" fill="#FFFEF8" width="2.752" height="29.1"/>
	<rect x="-583.999" y="696.792" fill="#FFFEF8" width="2.848" height="15.135"/>
	<rect x="-722.299" y="615.819" fill="#84764F" width="405.695" height="3.385"/>
	<polygon fill="#21170E" points="-635.409,559.935 -652.637,559.935 -652.637,544.862 -660.536,544.862 -660.536,559.935 
		-676.327,559.935 -676.327,567.11 -660.536,567.11 -660.536,601.934 -652.637,601.934 -652.637,567.11 -635.409,567.11 	"/>
	<polygon fill="#21170E" points="-536.54,544.654 -544.803,546.424 -576.674,578.296 -585.083,569.884 -590.987,575.786 
		-582.577,584.196 -591.727,593.346 -585.235,599.839 -576.086,590.691 -567.084,599.694 -561.18,593.79 -570.184,584.786 
		-538.311,552.916 	"/>
	<path fill="#1E1E1C" d="M-457.051,567.459l-14.66-5.861c2.072-1.481,3.428-3.908,3.428-6.648c0-4.521-3.662-8.185-8.182-8.185
		c-4.518,0-8.184,3.663-8.184,8.185c0,2.729,1.346,5.142,3.402,6.63l-15.111,6.045l1.119,5.936l13.959-3.85v11.54l-10.748,17.817
		l5.775,0.961l9.604-13.444l9.488,13.285l5.775-0.968l-11-17.651v-11.54l14.207,3.688L-457.051,567.459z"/>
	<path fill="#21170E" d="M-380.977,568.572c-5.174-2.136-5.559-3.072-5.559-4.263c0-1.563,1.355-2.498,3.631-2.498
		c3.137,0,5.041,1.088,5.957,1.611l2.408,1.379l3.109-8.208l-1.725-1.011c-1.863-1.089-3.902-1.789-6.189-2.11v-5.688h-8.252v6.207
		c-5.26,1.569-8.553,5.721-8.553,10.999c0,6.827,5.482,9.898,10.824,11.992c4.539,1.839,4.918,3.306,4.918,4.537
		c0,1.933-1.713,3.183-4.369,3.183c-2.369,0-4.924-0.761-6.838-2.037l-2.521-1.683l-2.986,8.334l1.459,1.044
		c1.932,1.38,4.738,2.372,7.668,2.756v5.893h8.311v-6.381c5.428-1.641,8.943-6.059,8.943-11.502
		C-370.739,573.703-376.217,570.515-380.977,568.572z"/>
	<g>
		<polygon fill="#1F1811" points="-652.362,543.816 -660.26,543.816 -660.26,558.889 -676.053,558.889 -676.053,566.065 
			-660.26,566.065 -660.26,600.885 -652.362,600.885 -652.362,566.065 -635.135,566.065 -635.135,558.889 -652.362,558.889 		"/>
		<polygon fill="#1F1811" points="-576.399,577.249 -584.811,568.84 -590.715,574.741 -582.303,583.15 -591.452,592.299 
			-584.959,598.792 -575.809,589.643 -566.811,598.645 -560.905,592.74 -569.907,583.741 -538.038,551.868 -536.268,543.607 
			-544.53,545.376 		"/>
		<path fill="#1F1811" d="M-468.008,553.9c0-4.519-3.664-8.184-8.184-8.184s-8.182,3.665-8.182,8.184c0,2.731,1.344,5.145,3.4,6.628
			l-15.111,6.046l1.123,5.938l13.955-3.852l0.004,11.542l-10.752,17.815l5.777,0.965l9.604-13.444l9.488,13.285l5.773-0.966
			l-10.998-17.655V568.66l14.205,3.688l1.125-5.936l-14.656-5.865C-469.366,559.065-468.008,556.644-468.008,553.9z"/>
		<path fill="#1F1811" d="M-380.704,567.526c-5.17-2.137-5.559-3.073-5.559-4.262c0-1.563,1.357-2.5,3.635-2.5
			c3.135,0,5.041,1.088,5.955,1.613l2.412,1.377l3.104-8.206l-1.725-1.013c-1.863-1.092-3.902-1.79-6.189-2.11v-5.688h-8.252v6.205
			c-5.256,1.573-8.549,5.723-8.549,11.001c0,6.828,5.482,9.896,10.82,11.989c4.541,1.84,4.922,3.31,4.922,4.541
			c0,1.933-1.715,3.178-4.371,3.178c-2.367,0-4.926-0.762-6.836-2.032l-2.527-1.687l-2.982,8.336l1.461,1.041
			c1.93,1.381,4.734,2.373,7.668,2.758v5.892h8.307v-6.377c5.426-1.642,8.947-6.062,8.947-11.506
			C-370.463,572.656-375.944,569.468-380.704,567.526z"/>
	</g>
	<g opacity="0.1">
		<polygon fill="#84764F" points="-658.29,598.751 -658.29,563.931 -674.083,563.931 -674.083,560.694 -658.29,560.694 
			-658.29,545.622 -654.334,545.622 -654.334,560.694 -637.108,560.694 -637.108,563.931 -654.334,563.931 -654.334,598.751 		"/>
		<polygon fill="#84764F" points="-588.665,592.135 -579.512,582.985 -587.924,574.575 -584.811,571.463 -576.399,579.872 
			-543.547,547.019 -538.833,546.011 -539.844,550.721 -572.698,583.577 -563.696,592.579 -566.811,595.691 -575.809,586.691 
			-584.959,595.839 		"/>
		<path fill="#84764F" d="M-488.565,596.385l9.531-15.796v-14.682l-14.387,3.969l-0.424-2.236l16.932-6.775l-2.904-2.098
			c-1.617-1.168-2.584-3.051-2.584-5.031c0-3.426,2.785-6.209,6.211-6.209c3.424,0,6.207,2.783,6.207,6.209
			c0,1.993-0.973,3.879-2.602,5.047l-2.928,2.095l16.496,6.602l-0.434,2.269l-14.629-3.802v14.657l9.734,15.631l-1.652,0.275
			l-10.377-14.525l-10.492,14.687L-488.565,596.385z"/>
		<path fill="#84764F" d="M-385.747,595.827v-5.652l-1.717-0.225c-2.652-0.349-5.125-1.228-6.777-2.406l-0.246-0.176l1.633-4.556
			l0.424,0.281c2.225,1.482,5.191,2.365,7.932,2.365c3.732,0,6.342-2.117,6.342-5.15c0-2.752-1.781-4.596-6.148-6.364
			c-4.992-1.959-9.592-4.538-9.592-10.168c0-4.364,2.67-7.77,7.143-9.108l1.406-0.42v-5.702h4.307v5.431l1.701,0.239
			c2.025,0.285,3.811,0.895,5.467,1.857l0.287,0.17l-1.701,4.486l-0.402-0.229c-0.979-0.558-3.27-1.872-6.936-1.872
			c-4.139,0-5.607,2.409-5.607,4.47c0,2.811,2.094,4.151,6.777,6.087c4.465,1.822,9.021,4.519,9.021,10.729
			c0,4.524-2.891,8.211-7.543,9.617l-1.402,0.424v5.873H-385.747z"/>
	</g>
	<g>
		<polygon opacity="0.2" fill="#84764F" enable-background="new    " points="-589.11,883.159 -646.319,902.229 -716.877,751.577 
			-549.26,751.577 -561.137,795.1 -555.547,831.965 -588.473,850.257 		"/>
		<polygon fill="#FFFFFF" points="-516.967,1072.325 -438.114,1017.23 -439.182,913.448 -455.774,892.458 -455.278,859.737 
			-512.03,835.544 		"/>
		<polygon fill="#0D0A07" points="-486.653,966.424 -470.668,952.465 -470.983,922.005 -485.596,915.775 		"/>
		<polygon fill="#0D0A07" points="-496.823,864.589 -484.25,868.303 -484.495,829.646 -495.991,824.747 		"/>
		<polygon fill="#0D0A07" points="-475.846,871.898 -463.274,875.612 -463.518,836.958 -475.014,832.057 		"/>
		<polygon fill="#88898A" points="-516.967,1072.325 -596.405,1017.23 -595.229,902.62 -577.821,889.28 -576.534,854.368 
			-512.03,835.544 		"/>
		<polygon fill="#0D0A07" points="-543.18,966.424 -560.504,951.296 -560.165,918.28 -544.327,911.528 		"/>
		<polygon fill="#0D0A07" points="-531.088,863.311 -543.661,867.025 -543.415,828.37 -531.918,823.469 		"/>
		<polygon fill="#0D0A07" points="-554.217,871.898 -566.79,875.612 -566.543,836.958 -555.049,832.057 		"/>
		<polyline fill="#0D0A07" points="-506.625,863.005 -512.561,861.094 -519.551,863.005 -516.967,836.985 -512.03,835.544 
			-506.625,837.848 -506.625,861.946 		"/>
		<g>
			<polygon fill="#B9B5B4" points="-640.184,834.139 -682.28,1067.903 -670.858,1054.268 -659.379,1036.161 -648.245,1007.532 
				-616.446,830.941 -638.881,826.903 			"/>
			<polygon fill="#898382" points="-605.59,832.896 -602.592,816.253 -633.799,798.678 -638.881,826.903 			"/>
			<polygon fill="#B04D3A" points="-616.446,755.155 -626.979,754.941 -633.409,796.507 -623.284,804.598 			"/>
			<polygon fill="#A4A2A3" points="-640.208,834.135 -682.303,1067.898 -688.25,1051.135 -692.692,1030.163 -693.139,999.448 
				-661.34,822.857 -638.903,826.898 			"/>
			<polygon fill="#7E6155" points="-672.196,820.903 -669.198,804.258 -633.823,798.674 -638.903,826.898 			"/>
			<polygon fill="#6D3115" points="-635.608,755.155 -624.926,755.155 -633.43,796.503 -645.743,800.555 			"/>
		</g>
		<rect x="-511.823" y="804.598" fill="#FFFFFF" width="9.434" height="18.871"/>
		<rect x="-521.686" y="804.598" fill="#88898A" width="9.436" height="18.871"/>
		<rect x="-511.61" y="777.9" fill="#FFFFFF" width="9.436" height="18.871"/>
		<rect x="-521.471" y="777.9" fill="#88898A" width="9.434" height="18.871"/>
		<polygon opacity="0.4" fill="#84764F" enable-background="new    " points="-450.688,886.737 -393.477,905.807 -322.918,755.155 
			-490.536,755.155 -478.661,798.678 -484.25,835.544 -451.323,853.835 		"/>
	</g>
	<polygon fill="#D90A43" points="-518.997,286.107 -672.428,354.043 -669.194,509.909 -516.854,509.909 	"/>
	<polygon fill="#E94360" points="-522.526,287.282 -375.983,337.573 -371.87,509.909 -516.854,509.909 	"/>
	<polygon fill="#D90A43" points="-376.262,336.293 -343.176,398.052 -343.176,509.909 -378.504,509.909 	"/>
	<polygon fill="#E94360" points="-671.393,353.071 -713.36,414.829 -713.36,509.909 -666.383,509.909 	"/>
	<g>
		<polyline fill="#FFFFFF" points="-332.864,513.925 -342.184,516.494 -347.651,535.485 -334.805,521.684 -321.958,516.494 
			-330.706,513.925 		"/>
		<rect x="-327.157" y="477.895" fill="#FFFFFF" width="4.326" height="38.601"/>
		<polygon fill="#FFFFFF" points="-327.157,516.494 -321.958,524.705 -328.028,542.733 -316.678,531.824 -316.678,521.684 
			-324.993,510.225 		"/>
		<polygon fill="#F6D256" points="-367.877,407.429 -388.897,413.645 -363.504,427.834 -370.065,417.632 		"/>
		<polygon fill="#FDF6C0" points="-365.692,405.796 -357.217,393.222 -347.651,385.569 -332.864,386.936 -319.219,391.309 
			-287.122,407.429 -277.102,437.112 -255.186,482.055 -245.374,505.966 -208.881,526.479 -248.706,521.684 -253.079,553.885 
			-273.852,510.225 -299.545,495.994 -334.805,486.994 -356.338,458.365 -359.776,440.781 -361.864,427.834 -367.014,417.632 		"/>
		<polygon fill="#1E1E1C" points="-346.061,424.419 -343.319,414.146 -348.268,402.338 -355.961,400.8 -358.706,411.072 
			-353.754,422.882 		"/>
		<polygon fill="#FFFFFF" points="-347.536,418.109 -345.825,411.7 -348.913,404.329 -353.713,403.369 -355.424,409.78 
			-352.334,417.149 		"/>
	</g>
	<polygon fill="#FFFFFF" points="-522.049,154.135 -608.715,175.883 -606.268,334.332 -521.336,392.61 	"/>
	<polygon fill="#88898A" points="-522.049,154.135 -435.256,175.365 -436.752,333.825 -521.336,392.61 	"/>
	<path fill="#84764F" d="M-446.702,52.119c-12.846,0.039-23.229,10.483-23.188,23.328c0.023,8.608,4.727,16.104,11.688,20.105
		l0.09,29.801c-17.924,2.528-35.955,4.019-54.008,4.47l-0.125-42.108c6.938-4.042,11.596-11.567,11.568-20.175
		c-0.039-12.595-10.078-22.813-22.578-23.172l0.445,148.597c29.18-0.056,58.354-2.502,87.229-7.345l0.639-90.136
		c6.938-4.043,11.596-11.566,11.568-20.175C-423.413,62.464-433.856,52.081-446.702,52.119z"/>
	<path fill="#FFE80C" d="M-522.377,44.382c-0.25-0.008-0.498-0.018-0.752-0.017c-12.846,0.039-23.229,10.483-23.189,23.329
		c0.027,8.607,4.729,16.104,11.689,20.104l0.127,42.039c-17.555-0.43-35.094-1.843-52.531-4.241l-0.088-29.366
		c6.938-4.042,11.594-11.566,11.568-20.174c-0.037-12.846-10.482-23.228-23.328-23.189s-23.229,10.483-23.189,23.328
		c0.027,8.607,4.729,16.104,11.689,20.104l0.863,89.611c29,4.771,58.295,7.126,87.584,7.07L-522.377,44.382z"/>
	
		<rect x="-574.04" y="247.556" transform="matrix(-0.9997 -0.0224 0.0224 -0.9997 -1140.0391 532.3502)" fill="#1E1E1C" width="14.002" height="50.001"/>
	
		<rect x="-484.02" y="249.248" transform="matrix(-0.9998 -0.0223 0.0223 -0.9998 -960.0403 537.7831)" fill="#1E1E1C" width="14.002" height="50.003"/>
	<g>
		<polygon fill="#878889" points="541.328,810.604 541.756,831.24 530.001,834.711 530.135,813.869 519.666,816.926 520.13,839.268 
			508.378,842.74 508.521,820.176 499.265,822.877 498.063,855.52 481.786,867.992 480.687,975.15 554.958,1026.664 
			559.082,829.166 551.865,830.299 551.99,807.492 		"/>
		<polygon fill="#FFFFFF" points="627.688,878.117 612.175,858.492 612.639,827.896 605.049,824.66 605.164,842.74 593.407,839.268 
			593.812,819.871 585.428,816.297 585.55,835.906 573.796,832.434 574.231,811.525 568.589,808.793 564.629,807.432 
			564.629,829.965 564.629,830.953 559.079,829.166 554.958,1026.664 628.688,975.15 		"/>
		<polygon fill="#181919" points="487.509,849.797 434.017,867.625 368.046,726.77 524.765,726.77 513.662,767.461 518.889,801.93 
			488.101,819.033 		"/>
		<polygon fill="#0C0A0A" points="583.305,927.648 598.249,914.596 597.956,886.115 584.292,880.291 		"/>
		<polygon fill="#0C0A0A" points="530.45,927.648 514.251,913.504 514.574,882.635 529.381,876.32 		"/>
		<g>
			<polygon fill="#B9B4B3" points="439.753,803.965 400.396,1022.531 411.076,1009.781 421.806,992.85 432.218,966.084 
				461.949,800.973 440.971,797.197 			"/>
			<polygon fill="#878282" points="472.097,802.803 474.901,787.24 445.722,770.809 440.971,797.197 			"/>
			<polygon fill="#B04E3B" points="461.949,730.113 452.101,729.914 446.089,768.777 455.555,776.344 			"/>
			<polygon fill="#A3A2A2" points="439.732,803.959 400.373,1022.523 394.813,1006.852 390.661,987.244 390.241,958.523 
				419.972,793.416 440.953,797.193 			"/>
			<polygon fill="#7F6256" points="409.826,791.588 412.626,776.025 445.703,770.803 440.953,797.193 			"/>
			<polygon fill="#6C3116" points="444.033,730.113 454.019,730.113 446.068,768.773 434.558,772.562 			"/>
		</g>
		<rect x="559.771" y="776.344" fill="#FFFFFF" width="8.818" height="17.643"/>
		<rect x="550.548" y="776.344" fill="#878889" width="8.823" height="17.643"/>
		<rect x="559.968" y="751.383" fill="#FFFFFF" width="8.822" height="17.643"/>
		<rect x="550.748" y="751.383" fill="#878889" width="8.822" height="17.643"/>
		<polygon fill="#2F2E29" points="616.931,853.143 670.42,870.973 736.394,730.113 579.674,730.113 590.778,770.809 585.55,805.275 
			616.336,822.379 		"/>
	</g>
	<g>
		<rect x="282.483" y="447.121" fill="#1E1810" width="539.477" height="172.988"/>
		<rect x="293.336" y="460.065" fill="#FFE715" width="514.657" height="112.498"/>
		<polygon fill="#21170E" points="403.568,496.317 381.712,496.317 381.712,477.195 371.692,477.195 371.692,496.317 
			351.657,496.317 351.657,505.424 371.692,505.424 371.692,549.596 381.712,549.596 381.712,505.424 403.568,505.424 		"/>
		<polygon fill="#21170E" points="538.774,478.391 528.289,480.636 487.858,521.067 477.191,510.4 469.699,517.889 480.375,528.557 
			468.764,540.163 477,548.401 488.608,536.792 500.026,548.213 507.511,540.722 496.097,529.305 536.525,488.872 		"/>
		<path fill="#1D1E1C" d="M635.734,505.862l-18.594-7.434c2.629-1.887,4.347-4.958,4.347-8.439c0-5.732-4.646-10.379-10.378-10.379
			c-5.729,0-10.38,4.647-10.38,10.379c0,3.464,1.707,6.526,4.314,8.41l-19.172,7.671l1.427,7.53l17.704-4.887l-1.427,15.064
			l-12.209,22.18l7.326,1.226l12.186-17.06l12.034,16.853l7.329-1.222l-12.214-22.184l-1.424-15.062l17.706,4.885L635.734,505.862z"
			/>
		<path fill="#21170E" d="M723.455,507.278c-6.556-2.713-7.049-3.9-7.049-5.409c0-1.982,1.726-3.168,4.609-3.168
			c3.978,0,6.397,1.378,7.557,2.045l3.058,1.748l3.941-10.412l-2.189-1.283c-2.364-1.383-4.949-2.271-7.853-2.675v-7.222h-10.466
			v7.875c-6.669,1.996-10.845,7.261-10.845,13.955c0,8.663,6.953,12.559,13.726,15.213c5.756,2.335,6.238,4.198,6.238,5.759
			c0,2.449-2.17,4.031-5.54,4.031c-3.004,0-6.249-0.965-8.675-2.582l-3.2-2.136l-3.788,10.574l1.849,1.322
			c2.45,1.751,6.013,3.012,9.729,3.497v7.478h10.539v-8.096c6.885-2.081,11.35-7.69,11.35-14.591
			C736.446,513.785,729.499,509.742,723.455,507.278z"/>
		<polygon fill="#1E1810" points="821.959,572.574 734.885,572.574 734.885,572.569 690.322,572.569 690.322,608.557 
			671.049,572.569 631.504,572.569 631.504,572.574 560.684,572.574 544.325,572.574 473.502,572.574 457.195,572.574 
			385.867,572.574 370.015,572.574 282.483,572.574 282.483,707.428 327.046,707.428 327.046,671.383 346.31,707.428 
			370.015,707.428 394.203,707.428 457.335,707.428 473.363,707.428 544.325,707.428 560.542,707.428 631.504,707.428 
			647.707,707.428 676.068,707.428 676.068,671.441 695.338,707.428 718.578,707.428 734.885,707.428 821.924,707.428 
			821.924,661.875 800.458,639.455 821.959,639.455 		"/>
		<rect x="699.411" y="584.809" fill="#FFFDF8" width="2.448" height="80.174"/>
		<rect x="755.738" y="612.824" fill="#B5B0AB" width="34.412" height="1.502"/>
		<rect x="788.96" y="625.92" fill="#B5B0AB" width="19.549" height="1.504"/>
		<rect x="294.045" y="584.809" fill="#DCDBDB" width="78.47" height="28.016"/>
		<rect x="294.185" y="584.805" fill="#DCDBDB" width="78.192" height="28.02"/>
		<rect x="294.185" y="625.715" fill="#DCDBDB" width="78.192" height="28.018"/>
		<rect x="294.045" y="584.805" fill="#DCDBDB" width="19.549" height="109.842"/>
		<rect x="352.863" y="584.805" fill="#DCDBDB" width="19.515" height="63.561"/>
		<polygon fill="#DCDBDB" points="329.749,651.391 349.342,651.391 372.41,694.646 352.863,694.646 		"/>
		<rect x="381.581" y="584.809" fill="#DCDBDB" width="78.468" height="28.016"/>
		<rect x="381.72" y="584.805" fill="#DCDBDB" width="78.186" height="28.02"/>
		<rect x="381.72" y="625.715" fill="#DCDBDB" width="78.186" height="28.018"/>
		<rect x="493.984" y="600.629" fill="#DCDBDB" width="28.023" height="78.191"/>
		<rect x="381.72" y="666.625" fill="#DCDBDB" width="78.186" height="28.021"/>
		<rect x="381.581" y="584.805" fill="#DCDBDB" width="19.546" height="109.842"/>
		<rect x="468.93" y="584.809" fill="#DCDBDB" width="78.297" height="28.016"/>
		<rect x="468.9" y="584.805" fill="#DCDBDB" width="78.189" height="28.02"/>
		<rect x="468.9" y="666.625" fill="#DCDBDB" width="78.189" height="28.021"/>
		<rect x="555.887" y="584.809" fill="#DCDBDB" width="78.468" height="28.016"/>
		<rect x="556.027" y="584.805" fill="#DCDBDB" width="78.188" height="28.02"/>
		<rect x="595.123" y="625.715" fill="#DCDBDB" width="39.092" height="28.021"/>
		<rect x="556.027" y="666.625" fill="#DCDBDB" width="78.188" height="28.021"/>
		<rect x="555.887" y="584.805" fill="#DCDBDB" width="19.547" height="109.842"/>
		<rect x="614.706" y="625.715" fill="#DCDBDB" width="19.546" height="68.932"/>
		<rect x="643.067" y="584.805" fill="#DCDBDB" width="19.548" height="109.842"/>
		<rect x="701.886" y="584.805" fill="#DCDBDB" width="19.547" height="109.842"/>
		<polygon fill="#DCDBDB" points="643.067,584.809 662.615,584.805 721.433,694.646 701.886,694.646 		"/>
		<rect x="730.143" y="584.809" fill="#DCDBDB" width="78.277" height="28.016"/>
		<rect x="730.283" y="666.625" fill="#DCDBDB" width="78.189" height="28.021"/>
		<rect x="730.143" y="653.732" fill="#DCDBDB" width="19.548" height="40.914"/>
		<rect x="788.96" y="584.805" fill="#DCDBDB" width="19.549" height="41.867"/>
		<polygon fill="#DCDBDB" points="730.143,612.824 755.763,611.57 808.472,666.625 782.865,667.338 		"/>
		<rect x="294.185" y="584.809" fill="#FFFDF8" width="78.225" height="4.051"/>
		<rect x="381.701" y="584.809" fill="#FFFDF8" width="78.225" height="4.051"/>
		<rect x="468.882" y="584.809" fill="#FFFDF8" width="78.223" height="4.051"/>
		<rect x="556.01" y="584.809" fill="#FFFDF8" width="78.224" height="4.051"/>
		<rect x="730.197" y="584.807" fill="#FFFDF8" width="78.224" height="4.053"/>
		<rect x="730.119" y="653.215" fill="#FFFDF8" width="19.572" height="4.055"/>
		<rect x="788.96" y="623.371" fill="#B5B0AB" width="19.652" height="4.051"/>
		<polygon fill="#FFFDF8" points="664.788,588.859 643.136,588.859 643.136,584.809 662.615,584.805 		"/>
		<polygon fill="#FFFDF8" points="721.433,588.859 701.886,588.859 701.886,584.809 721.362,584.805 		"/>
		<polygon fill="#EFEFEE" points="782.354,671.393 749.691,671.393 749.691,667.34 782.235,667.338 		"/>
		<polygon fill="#EFEFEE" points="614.706,671.393 575.434,671.393 575.434,667.34 614.567,667.338 		"/>
		<polygon fill="#EFEFEE" points="547.134,671.393 521.091,671.393 521.091,667.34 547.038,667.338 		"/>
		<polygon fill="#EFEFEE" points="493.954,671.393 468.93,671.393 468.93,667.34 493.868,667.338 		"/>
		<polygon fill="#EFEFEE" points="459.906,671.393 401.126,671.393 401.126,667.34 459.925,667.338 		"/>
		<polygon fill="#EFEFEE" points="460.048,629.453 401.041,629.453 401.041,625.398 459.837,625.396 		"/>
		<rect x="595.105" y="625.398" fill="#EFEFEE" width="39.146" height="4.055"/>
		<polygon fill="#EFEFEE" points="297.541,690.594 294.045,694.646 294.045,584.805 297.151,588.855 		"/>
		<polygon fill="#B5B0AB" points="369.177,649.975 372.377,653.732 372.515,584.805 369.412,588.855 		"/>
		<rect x="313.594" y="612.824" fill="#B5B0AB" width="39.269" height="1.502"/>
		<rect x="401.041" y="612.824" fill="#B5B0AB" width="58.865" height="1.502"/>
		<rect x="468.9" y="612.824" fill="#B5B0AB" width="25.084" height="1.502"/>
		<rect x="521.091" y="612.824" fill="#B5B0AB" width="25.998" height="1.502"/>
		<rect x="575.434" y="612.824" fill="#B5B0AB" width="58.78" height="1.502"/>
		<rect x="595.123" y="653.736" fill="#B5B0AB" width="19.546" height="1.502"/>
		<polygon fill="#B5B0AB" points="372.377,653.732 350.635,653.732 348.903,649.975 372.377,649.975 		"/>
		<rect x="310.101" y="649.975" fill="#E4E4E4" width="3.493" height="44.672"/>
		<polygon fill="#B5B0AB" points="313.594,694.646 294.045,694.646 297.541,690.594 310.337,690.594 		"/>
		<polygon fill="#E4E4E4" points="355.158,690.594 333.283,649.975 328.888,649.975 352.846,694.646 		"/>
		<polygon fill="#B5B0AB" points="331.186,653.732 313.594,653.732 310.101,649.975 333.283,649.975 		"/>
		<polygon fill="#B5B0AB" points="372.394,694.646 352.846,694.646 355.158,690.594 370.25,690.594 		"/>
		<rect x="381.581" y="690.594" fill="#B5B0AB" width="78.325" height="4.053"/>
		<rect x="468.93" y="690.594" fill="#B5B0AB" width="78.159" height="4.053"/>
		<rect x="555.887" y="690.594" fill="#B5B0AB" width="78.327" height="4.053"/>
		<rect x="643.015" y="690.594" fill="#B5B0AB" width="19.6" height="4.053"/>
		<rect x="701.859" y="690.594" fill="#B5B0AB" width="19.6" height="4.053"/>
		<rect x="730.119" y="690.594" fill="#B5B0AB" width="78.354" height="4.053"/>
		<rect x="401.041" y="614.326" fill="#B5B0AB" width="2.586" height="11.07"/>
		<rect x="521.091" y="614.326" fill="#B5B0AB" width="2.453" height="53.012"/>
		<rect x="575.434" y="613.221" fill="#B5B0AB" width="2.452" height="53.01"/>
		<rect x="612.22" y="655.238" fill="#FFFDF8" width="2.448" height="12.1"/>
		<rect x="491.505" y="614.326" fill="#FFFDF8" width="2.448" height="53.012"/>
		<rect x="401.126" y="653.732" fill="#B5B0AB" width="2.5" height="13.607"/>
		<rect x="313.594" y="614.326" fill="#B5B0AB" width="2.45" height="11.389"/>
		<rect x="381.581" y="588.859" fill="#FFFDF8" width="3.493" height="101.734"/>
		<rect x="468.93" y="588.859" fill="#FFFDF8" width="3.495" height="25.467"/>
		<rect x="643.136" y="588.859" fill="#FFFDF8" width="3.494" height="101.734"/>
		<polygon fill="#FFFDF8" points="733.246,616.025 730.283,612.729 730.283,586.832 733.78,586.832 		"/>
		<rect x="730.283" y="653.68" fill="#FFFDF8" width="3.497" height="36.914"/>
		<rect x="468.93" y="671.393" fill="#FFFDF8" width="3.467" height="19.201"/>
		<rect x="293.336" y="459.458" opacity="0.2" fill="#EFEFEE" width="514.659" height="4.296"/>
		<rect x="293.336" y="568.066" fill="#83754E" width="514.659" height="4.296"/>
	</g>
	<polygon fill="#D80D44" points="553.237,227.026 409.781,290.545 412.804,436.278 555.239,436.278 	"/>
	<polygon fill="#E84360" points="549.938,228.124 686.952,275.145 690.798,436.278 555.239,436.278 	"/>
	<polygon fill="#D80D44" points="686.689,273.949 717.625,331.692 717.625,436.278 684.594,436.278 	"/>
	<polygon fill="#E84360" points="410.748,289.636 371.509,347.378 371.509,436.278 415.43,436.278 	"/>
	<polygon fill="#FFFFFF" points="550.382,103.634 469.35,123.966 471.638,272.115 551.048,326.605 	"/>
	<polygon fill="#878889" points="550.382,103.634 631.532,123.483 630.133,271.641 551.048,326.605 	"/>
	<path fill="#837750" d="M620.832,8.249c-12.011,0.037-21.719,9.803-21.682,21.812c0.023,8.048,4.421,15.057,10.929,18.797
		l0.084,27.864c-16.758,2.364-33.617,3.758-50.495,4.179l-0.119-39.37c6.488-3.779,10.844-10.815,10.817-18.863
		c-0.036-11.777-9.423-21.331-21.11-21.667l0.416,138.937c27.283-0.053,54.562-2.34,81.559-6.867l0.595-84.276
		c6.488-3.781,10.841-10.815,10.817-18.864C642.606,17.922,632.842,8.214,620.832,8.249z"/>
	<path fill="#FFE715" d="M550.076,1.015c-0.234-0.006-0.467-0.016-0.705-0.015c-12.01,0.037-21.715,9.801-21.679,21.812
		c0.023,8.047,4.419,15.057,10.927,18.797l0.119,39.306c-16.414-0.403-32.812-1.724-49.115-3.966l-0.082-27.457
		c6.486-3.779,10.842-10.813,10.815-18.862c-0.034-12.011-9.8-21.718-21.812-21.682c-12.011,0.037-21.718,9.801-21.682,21.811
		c0.026,8.048,4.42,15.058,10.93,18.796l0.809,83.786c27.113,4.461,54.503,6.663,81.889,6.611L550.076,1.015z"/>
	<rect x="502.294" y="190.84" fill="#1E1E1C" width="13.089" height="47.032"/>
	<rect x="586.462" y="192.421" fill="#1E1E1C" width="13.088" height="47.033"/>
	<polygon fill="#F6D256" points="673.616,347.043 653.961,352.855 677.704,366.122 671.571,356.583 	"/>
	<polygon fill="#FCF6C0" points="675.659,345.516 683.582,333.759 692.526,326.605 706.351,327.883 727.49,332.201 749.123,347.043 
		755.738,362.929 763.161,378.863 778.979,416.817 788.155,439.173 822.274,458.352 785.039,453.87 780.951,483.978 
		761.528,443.155 737.503,429.851 704.537,421.436 684.405,394.668 681.19,378.228 679.238,366.122 674.421,356.583 	"/>
	<polygon fill="#1E1E1C" points="694.013,362.929 696.578,353.325 691.949,342.283 684.756,340.845 682.192,350.45 686.818,361.491 
			"/>
	<polygon fill="#FFFFFF" points="692.636,357.029 694.235,351.036 691.347,344.145 686.857,343.247 685.258,349.241 
		688.148,356.132 	"/>
	<path fill="#FFFFFF" d="M726.665,425.795l-7.188,12.987l-7.173,5.075h-7.522l-4.898,3.499l-3.848,4.372l2.449,8.048l0.873-6.647
		l5.074-5.074c0,0-1.749,2.799-1.575,3.673c0.175,0.875,2.102,4.024,2.102,4.024l1.747-6.297l5.249-1.75l6.647-0.525l14.233-19.812
		L726.665,425.795z"/>
	<g>
		<polyline fill="#FFFFFF" points="696.17,822.801 700.497,828.369 709.047,832.783 722.01,831.127 730.377,825.336 737.457,816.51 
			737.457,795.416 718.701,784.791 705.69,786.445 698.135,793.34 691.947,804.51 691.947,814.494 696.17,822.801 		"/>
		<polygon fill="#FFFFFF" points="742.331,739.189 730.377,763.094 734.241,765.301 748.778,737.35 		"/>
		<polygon fill="#FFFFFF" points="797.655,716.205 797.655,709.951 791.404,713.078 		"/>
		<polygon fill="#FFFFFF" points="796.5,721.51 797.127,720.582 793.675,716.898 789.141,715.186 788.514,716.115 791.88,719.74 		
			"/>
		<polygon fill="#FFFFFF" points="793.52,727.994 794.529,727.031 791.311,721.637 786.258,718.35 785.248,719.311 788.375,724.613 
					"/>
		<polygon fill="#FFFFFF" points="789.745,732.965 790.876,731.895 787.299,725.859 781.66,722.172 780.531,723.242 
			784.008,729.174 		"/>
		<polygon fill="#FFFFFF" points="784.573,738.363 785.703,737.291 782.125,731.256 776.489,727.57 775.359,728.641 778.837,734.57 
					"/>
		<polygon fill="#FFFFFF" points="779.402,742.748 780.531,741.678 776.954,735.639 771.317,731.955 770.188,733.025 
			773.666,738.955 		"/>
		<polygon fill="#FFFFFF" points="774.23,748.145 775.359,747.072 771.783,741.037 766.145,737.35 765.016,738.422 768.494,744.354 
					"/>
		<polygon fill="#FFFFFF" points="732.131,787.92 732.69,786.465 726.859,782.561 720.181,781.664 719.625,783.115 725.32,786.969 
					"/>
		<polygon fill="#FFFFFF" points="731.914,781.873 732.349,780.736 727.796,777.686 722.582,776.986 722.146,778.121 
			726.593,781.131 		"/>
		<polygon fill="#FFFFFF" points="727.848,772.656 727.259,771.334 722.625,771.812 719.336,774.861 719.926,776.182 
			724.475,775.742 		"/>
		<polygon fill="#FFFFFF" points="727.757,744.934 728.259,743.576 724.609,740.68 720.127,740.562 719.625,741.92 723.187,744.785 
					"/>
		<polygon fill="#FFFFFF" points="735.099,767.398 735.715,766.088 732.319,762.898 727.861,762.408 727.249,763.721 
			730.558,766.871 		"/>
		<polygon fill="#FFFFFF" points="738.782,776.281 737.594,775.455 733.877,778.268 732.647,782.58 733.838,783.402 737.5,780.668 
					"/>
		<polygon fill="#FFFFFF" points="740.57,757.693 739.128,757.816 738.062,762.352 739.865,766.457 741.307,766.332 
			742.382,761.889 		"/>
		<polygon fill="#FFFFFF" points="763.21,746.473 762.18,746.562 761.417,749.801 762.707,752.73 763.736,752.643 764.503,749.471 
					"/>
		<polygon fill="#FFFFFF" points="734.463,781.645 739.577,784.771 741.964,783.209 768.442,754.096 771.752,754.096 
			775.359,754.096 766.236,748.145 765.016,752.795 739.577,780.012 737.457,778.539 		"/>
		<polygon fill="#FFFFFF" points="739.577,765.301 762.378,751.324 763.661,748.145 739.577,760.152 		"/>
		<polygon fill="#FFFFFF" points="721.401,773.758 716.956,760.152 721.401,742.748 723.943,742.748 720.448,758.252 
			723.943,771.92 		"/>
		<polygon fill="#F6D256" points="687.514,804.955 693.647,795.416 669.905,808.684 689.559,814.494 		"/>
		<polygon fill="#1E1E1C" points="702.761,800.047 698.135,811.088 700.7,820.693 707.892,819.254 712.521,808.213 709.957,798.609 
					"/>
		<path fill="#FFFFFF" d="M742.608,735.742l-7.188-12.986l-7.173-5.074h-7.522l-4.898-3.5l-3.848-4.373l2.449-8.047l0.873,6.646
			l5.074,5.076c0,0-1.749-2.801-1.575-3.676c0.175-0.873,2.102-4.021,2.102-4.021l1.747,6.295l5.249,1.75l6.648,0.525l14.232,19.812
			L742.608,735.742z"/>
	</g>
</g>
<g id="Layer_3" display="none">
	<g display="inline">
		<polygon fill="#878889" points="576.195,339.694 575.701,315.933 589.236,311.937 589.08,335.933 601.136,332.415 
			600.601,306.689 614.132,302.691 613.968,328.671 624.626,325.562 626.009,287.976 644.751,273.616 646.017,150.232 560.5,90.919 
			555.753,318.32 564.062,317.017 563.918,343.276 		"/>
		<polygon fill="#FFFFFF" points="476.757,261.957 494.62,284.555 494.085,319.782 502.823,323.508 502.693,302.691 
			516.229,306.689 515.764,329.023 525.416,333.139 525.276,310.559 538.811,314.559 538.309,338.633 544.805,341.779 
			549.363,343.346 549.363,317.401 549.363,316.263 555.755,318.32 560.5,90.919 475.605,150.232 		"/>
		<polygon fill="#181919" points="638.162,294.566 699.753,274.038 775.712,436.221 595.265,436.221 608.05,389.368 602.029,349.68 
			637.48,329.988 		"/>
		<polygon fill="#0C0A0A" points="527.86,204.927 510.654,219.955 510.991,252.748 526.725,259.454 		"/>
		<polygon fill="#0C0A0A" points="588.718,204.927 607.371,221.213 607,256.756 589.949,264.026 		"/>
		<g>
			<polygon fill="#B9B4B3" points="693.148,347.338 738.464,95.678 726.167,110.358 713.814,129.853 701.824,160.672 
				667.593,350.782 691.746,355.129 			"/>
			<polygon fill="#878282" points="655.908,348.676 652.677,366.594 686.277,385.515 691.746,355.129 			"/>
			<polygon fill="#B04E3B" points="667.593,432.371 678.931,432.601 685.853,387.852 674.953,379.141 			"/>
			<polygon fill="#A3A2A2" points="693.173,347.344 738.492,95.686 744.892,113.73 749.673,136.308 750.158,169.376 
				715.925,359.483 691.767,355.134 			"/>
			<polygon fill="#7F6256" points="727.607,361.588 724.382,379.508 686.298,385.52 691.767,355.134 			"/>
			<polygon fill="#6C3116" points="688.22,432.371 676.722,432.371 685.878,387.857 699.13,383.495 			"/>
		</g>
		<rect x="544.805" y="358.826" fill="#FFFFFF" width="10.154" height="20.315"/>
		<rect x="555.418" y="358.826" fill="#878889" width="10.16" height="20.315"/>
		<rect x="544.574" y="387.566" fill="#FFFFFF" width="10.158" height="20.315"/>
		<rect x="555.19" y="387.566" fill="#878889" width="10.158" height="20.315"/>
		<polygon fill="#2F2E29" points="489.144,290.713 427.555,270.185 351.593,432.371 532.041,432.371 519.256,385.515 
			525.276,345.828 489.827,326.135 		"/>
	</g>
	<g display="inline">
		<rect x="281.471" y="446.004" fill="#1E1810" width="539.476" height="172.988"/>
		<rect x="292.324" y="458.95" fill="#FFE715" width="514.658" height="112.497"/>
		<polygon fill="#21170E" points="402.556,495.201 380.7,495.201 380.7,476.079 370.68,476.079 370.68,495.201 350.645,495.201 
			350.645,504.307 370.68,504.307 370.68,548.48 380.7,548.48 380.7,504.307 402.556,504.307 		"/>
		<polygon fill="#21170E" points="537.762,477.274 527.276,479.52 486.846,519.951 476.179,509.284 468.687,516.772 
			479.362,527.441 467.752,539.046 475.987,547.285 487.596,535.676 499.014,547.097 506.499,539.606 495.085,528.189 
			535.513,487.756 		"/>
		<path fill="#1D1E1C" d="M634.722,504.747l-18.594-7.435c2.629-1.888,4.346-4.958,4.346-8.438c0-5.732-4.646-10.379-10.377-10.379
			s-10.381,4.646-10.381,10.379c0,3.463,1.707,6.525,4.314,8.41l-19.172,7.67l1.428,7.531l17.703-4.888l-1.426,15.064l-12.209,22.18
			l7.326,1.226l12.186-17.06L621.9,545.86l7.33-1.222l-12.215-22.184l-1.424-15.062l17.707,4.885L634.722,504.747z"/>
		<path fill="#21170E" d="M722.443,506.163c-6.557-2.713-7.049-3.9-7.049-5.409c0-1.982,1.725-3.169,4.609-3.169
			c3.977,0,6.396,1.379,7.557,2.045l3.057,1.748l3.941-10.412l-2.189-1.283c-2.363-1.383-4.949-2.271-7.852-2.676v-7.221H714.05
			v7.875c-6.668,1.996-10.844,7.261-10.844,13.955c0,8.662,6.953,12.559,13.725,15.213c5.756,2.336,6.238,4.197,6.238,5.758
			c0,2.449-2.17,4.032-5.539,4.032c-3.004,0-6.25-0.964-8.676-2.583l-3.199-2.135l-3.789,10.574l1.85,1.322
			c2.449,1.751,6.012,3.012,9.729,3.497v7.478h10.539v-8.096c6.885-2.081,11.35-7.69,11.35-14.592
			C735.433,512.668,728.486,508.625,722.443,506.163z"/>
		<polygon fill="#1E1810" points="820.947,571.458 733.873,571.458 733.873,571.453 689.31,571.453 689.31,607.441 670.037,571.453 
			630.492,571.453 630.492,571.458 559.672,571.458 543.312,571.458 472.49,571.458 456.183,571.458 384.854,571.458 
			369.003,571.458 281.471,571.458 281.471,706.312 326.034,706.312 326.034,670.266 345.298,706.312 369.003,706.312 
			393.19,706.312 456.323,706.312 472.351,706.312 543.312,706.312 559.53,706.312 630.492,706.312 646.695,706.312 
			675.056,706.312 675.056,670.324 694.326,706.312 717.566,706.312 733.873,706.312 820.912,706.312 820.912,660.76 
			799.447,638.338 820.947,638.338 		"/>
		<rect x="698.398" y="583.693" fill="#FFFDF8" width="2.449" height="80.174"/>
		<rect x="754.726" y="611.707" fill="#B5B0AB" width="34.412" height="1.502"/>
		<rect x="787.949" y="624.805" fill="#B5B0AB" width="19.549" height="1.504"/>
		<rect x="293.033" y="583.693" fill="#DCDBDB" width="78.47" height="28.014"/>
		<rect x="293.173" y="583.688" fill="#DCDBDB" width="78.192" height="28.019"/>
		<rect x="293.173" y="624.6" fill="#DCDBDB" width="78.192" height="28.018"/>
		<rect x="293.033" y="583.688" fill="#DCDBDB" width="19.549" height="109.841"/>
		<rect x="351.851" y="583.688" fill="#DCDBDB" width="19.515" height="63.56"/>
		<polygon fill="#DCDBDB" points="328.736,650.273 348.33,650.273 371.397,693.529 351.851,693.529 		"/>
		<rect x="380.568" y="583.693" fill="#DCDBDB" width="78.468" height="28.014"/>
		<rect x="380.708" y="583.688" fill="#DCDBDB" width="78.186" height="28.019"/>
		<rect x="380.708" y="624.6" fill="#DCDBDB" width="78.186" height="28.018"/>
		<rect x="492.972" y="599.514" fill="#DCDBDB" width="28.023" height="78.191"/>
		<rect x="380.708" y="665.508" fill="#DCDBDB" width="78.186" height="28.021"/>
		<rect x="380.568" y="583.688" fill="#DCDBDB" width="19.546" height="109.841"/>
		<rect x="467.918" y="583.693" fill="#DCDBDB" width="78.297" height="28.014"/>
		<rect x="467.888" y="583.688" fill="#DCDBDB" width="78.189" height="28.019"/>
		<rect x="467.888" y="665.508" fill="#DCDBDB" width="78.189" height="28.021"/>
		<rect x="554.875" y="583.693" fill="#DCDBDB" width="78.468" height="28.014"/>
		<rect x="555.015" y="583.688" fill="#DCDBDB" width="78.188" height="28.019"/>
		<rect x="594.111" y="624.6" fill="#DCDBDB" width="39.092" height="28.021"/>
		<rect x="555.015" y="665.508" fill="#DCDBDB" width="78.188" height="28.021"/>
		<rect x="554.875" y="583.688" fill="#DCDBDB" width="19.546" height="109.841"/>
		<rect x="613.693" y="624.6" fill="#DCDBDB" width="19.547" height="68.93"/>
		<rect x="642.054" y="583.688" fill="#DCDBDB" width="19.549" height="109.841"/>
		<rect x="700.875" y="583.688" fill="#DCDBDB" width="19.547" height="109.841"/>
		<polygon fill="#DCDBDB" points="642.054,583.693 661.603,583.688 720.421,693.529 700.875,693.529 		"/>
		<rect x="729.13" y="583.693" fill="#DCDBDB" width="78.277" height="28.014"/>
		<rect x="729.271" y="665.508" fill="#DCDBDB" width="78.189" height="28.021"/>
		<rect x="729.13" y="652.617" fill="#DCDBDB" width="19.549" height="40.912"/>
		<rect x="787.949" y="583.688" fill="#DCDBDB" width="19.549" height="41.869"/>
		<polygon fill="#DCDBDB" points="729.13,611.707 754.751,610.453 807.46,665.508 781.853,666.223 		"/>
		<rect x="293.173" y="583.693" fill="#FFFDF8" width="78.225" height="4.051"/>
		<rect x="380.688" y="583.693" fill="#FFFDF8" width="78.225" height="4.051"/>
		<rect x="467.87" y="583.693" fill="#FFFDF8" width="78.223" height="4.051"/>
		<rect x="554.998" y="583.693" fill="#FFFDF8" width="78.224" height="4.051"/>
		<rect x="729.185" y="583.691" fill="#FFFDF8" width="78.223" height="4.053"/>
		<rect x="729.107" y="652.1" fill="#FFFDF8" width="19.572" height="4.053"/>
		<rect x="787.949" y="622.256" fill="#B5B0AB" width="19.652" height="4.051"/>
		<polygon fill="#FFFDF8" points="663.775,587.744 642.125,587.744 642.125,583.693 661.603,583.688 		"/>
		<polygon fill="#FFFDF8" points="720.421,587.744 700.875,587.744 700.875,583.693 720.349,583.688 		"/>
		<polygon fill="#EFEFEE" points="781.341,670.277 748.679,670.277 748.679,666.225 781.222,666.223 		"/>
		<polygon fill="#EFEFEE" points="613.693,670.277 574.421,670.277 574.421,666.225 613.554,666.223 		"/>
		<polygon fill="#EFEFEE" points="546.122,670.277 520.079,670.277 520.079,666.225 546.025,666.223 		"/>
		<polygon fill="#EFEFEE" points="492.941,670.277 467.918,670.277 467.918,666.225 492.855,666.223 		"/>
		<polygon fill="#EFEFEE" points="458.894,670.277 400.114,670.277 400.114,666.225 458.913,666.223 		"/>
		<polygon fill="#EFEFEE" points="459.036,628.336 400.028,628.336 400.028,624.283 458.825,624.281 		"/>
		<rect x="594.093" y="624.283" fill="#EFEFEE" width="39.146" height="4.053"/>
		<polygon fill="#EFEFEE" points="296.528,689.477 293.033,693.529 293.033,583.688 296.139,587.74 		"/>
		<polygon fill="#B5B0AB" points="368.165,648.859 371.365,652.617 371.503,583.688 368.399,587.74 		"/>
		<rect x="312.582" y="611.707" fill="#B5B0AB" width="39.269" height="1.502"/>
		<rect x="400.028" y="611.707" fill="#B5B0AB" width="58.865" height="1.502"/>
		<rect x="467.888" y="611.707" fill="#B5B0AB" width="25.084" height="1.502"/>
		<rect x="520.079" y="611.707" fill="#B5B0AB" width="25.998" height="1.502"/>
		<rect x="574.421" y="611.707" fill="#B5B0AB" width="58.781" height="1.502"/>
		<rect x="594.111" y="652.621" fill="#B5B0AB" width="19.545" height="1.502"/>
		<polygon fill="#B5B0AB" points="371.365,652.617 349.623,652.617 347.891,648.859 371.365,648.859 		"/>
		<rect x="309.089" y="648.859" fill="#E4E4E4" width="3.493" height="44.67"/>
		<polygon fill="#B5B0AB" points="312.582,693.529 293.033,693.529 296.528,689.477 309.325,689.477 		"/>
		<polygon fill="#E4E4E4" points="354.146,689.477 332.271,648.859 327.876,648.859 351.834,693.529 		"/>
		<polygon fill="#B5B0AB" points="330.174,652.617 312.582,652.617 309.089,648.859 332.271,648.859 		"/>
		<polygon fill="#B5B0AB" points="371.382,693.529 351.834,693.529 354.146,689.477 369.238,689.477 		"/>
		<rect x="380.568" y="689.477" fill="#B5B0AB" width="78.325" height="4.053"/>
		<rect x="467.918" y="689.477" fill="#B5B0AB" width="78.159" height="4.053"/>
		<rect x="554.875" y="689.477" fill="#B5B0AB" width="78.328" height="4.053"/>
		<rect x="642.003" y="689.477" fill="#B5B0AB" width="19.6" height="4.053"/>
		<rect x="700.847" y="689.477" fill="#B5B0AB" width="19.6" height="4.053"/>
		<rect x="729.107" y="689.477" fill="#B5B0AB" width="78.354" height="4.053"/>
		<rect x="400.028" y="613.209" fill="#B5B0AB" width="2.586" height="11.072"/>
		<rect x="520.079" y="613.209" fill="#B5B0AB" width="2.453" height="53.014"/>
		<rect x="574.421" y="612.104" fill="#B5B0AB" width="2.453" height="53.012"/>
		<rect x="611.208" y="654.123" fill="#FFFDF8" width="2.447" height="12.1"/>
		<rect x="490.493" y="613.209" fill="#FFFDF8" width="2.448" height="53.014"/>
		<rect x="400.114" y="652.617" fill="#B5B0AB" width="2.5" height="13.607"/>
		<rect x="312.582" y="613.209" fill="#B5B0AB" width="2.45" height="11.391"/>
		<rect x="380.568" y="587.744" fill="#FFFDF8" width="3.493" height="101.732"/>
		<rect x="467.918" y="587.744" fill="#FFFDF8" width="3.495" height="25.465"/>
		<rect x="642.125" y="587.744" fill="#FFFDF8" width="3.494" height="101.732"/>
		<polygon fill="#FFFDF8" points="732.234,614.91 729.271,611.613 729.271,585.717 732.767,585.717 		"/>
		<rect x="729.271" y="652.562" fill="#FFFDF8" width="3.496" height="36.914"/>
		<rect x="467.918" y="670.277" fill="#FFFDF8" width="3.467" height="19.199"/>
		<rect x="292.324" y="458.342" opacity="0.2" fill="#EFEFEE" width="514.66" height="4.296"/>
		<rect x="292.324" y="566.95" fill="#83754E" width="514.66" height="4.296"/>
	</g>
	<polygon display="inline" fill="#D80D44" points="567.003,928.168 710.46,864.648 707.437,718.916 565.001,718.916 	"/>
	<polygon display="inline" fill="#E84360" points="570.302,927.07 433.288,880.049 429.442,718.916 565.001,718.916 	"/>
	<polygon display="inline" fill="#D80D44" points="433.552,881.244 402.614,823.502 402.614,718.916 435.646,718.916 	"/>
	<polygon display="inline" fill="#E84360" points="709.494,865.559 748.732,807.814 748.732,718.916 704.81,718.916 	"/>
	<polygon display="inline" fill="#FFFFFF" points="569.859,1051.561 650.89,1031.227 648.603,883.078 569.192,828.588 	"/>
	<polygon display="inline" fill="#878889" points="569.859,1051.561 488.708,1031.711 490.106,883.553 569.192,828.588 	"/>
	<path display="inline" fill="#837750" d="M499.409,1146.945c12.01-0.037,21.719-9.803,21.682-21.812
		c-0.023-8.049-4.422-15.057-10.93-18.797l-0.084-27.865c16.758-2.363,33.617-3.758,50.496-4.178l0.119,39.369
		c-6.488,3.779-10.844,10.814-10.818,18.863c0.037,11.777,9.424,21.33,21.112,21.666l-0.416-138.938
		c-27.284,0.053-54.563,2.34-81.559,6.867l-0.596,84.277c-6.488,3.779-10.84,10.814-10.816,18.863
		C477.634,1137.271,487.397,1146.979,499.409,1146.945z"/>
	<path display="inline" fill="#FFE715" d="M570.166,1154.178c0.234,0.008,0.467,0.018,0.705,0.016
		c12.01-0.037,21.715-9.801,21.678-21.812c-0.023-8.047-4.418-15.057-10.926-18.797l-0.119-39.307
		c16.414,0.404,32.812,1.725,49.115,3.967l0.082,27.457c-6.486,3.779-10.842,10.812-10.816,18.861
		c0.035,12.012,9.801,21.719,21.812,21.682c12.01-0.037,21.717-9.801,21.682-21.811c-0.027-8.049-4.42-15.059-10.93-18.797
		l-0.809-83.785c-27.113-4.461-54.504-6.662-81.889-6.611L570.166,1154.178z"/>
	<rect x="604.857" y="917.322" display="inline" fill="#1E1E1C" width="13.09" height="47.031"/>
	<rect x="520.69" y="915.738" display="inline" fill="#1E1E1C" width="13.088" height="47.033"/>
	<polygon display="inline" fill="#F6D256" points="446.624,808.15 466.278,802.338 442.536,789.072 448.669,798.611 	"/>
	<polygon display="inline" fill="#FCF6C0" points="444.581,809.678 436.659,821.436 427.714,828.588 413.89,827.311 
		392.751,822.992 371.118,808.15 364.503,792.266 357.079,776.33 341.261,738.377 332.085,716.02 297.966,696.842 335.202,701.324 
		339.29,671.215 358.712,712.039 382.737,725.344 415.704,733.758 435.835,760.525 439.05,776.967 441.003,789.072 445.819,798.611 
			"/>
	<polygon display="inline" fill="#1E1E1C" points="426.228,792.266 423.663,801.869 428.292,812.91 435.483,814.35 438.048,804.744 
		433.423,793.703 	"/>
	<polygon display="inline" fill="#FFFFFF" points="427.604,798.164 426.005,804.158 428.894,811.049 433.384,811.947 
		434.981,805.953 432.093,799.061 	"/>
	<path display="inline" fill="#FFFFFF" d="M393.575,729.398l7.189-12.986l7.172-5.076h7.523l4.898-3.498l3.848-4.373l-2.449-8.047
		l-0.873,6.646l-5.074,5.074c0,0,1.748-2.799,1.574-3.674s-2.102-4.023-2.102-4.023l-1.746,6.297l-5.25,1.75l-6.646,0.525
		l-14.234,19.812L393.575,729.398z"/>
	<g display="inline">
		<polyline fill="#FFFFFF" points="424.069,332.392 419.743,326.823 411.192,322.41 398.229,324.065 389.862,329.857 
			382.784,338.684 382.784,359.777 401.54,370.402 414.55,368.748 422.104,361.853 428.294,350.684 428.294,340.698 
			424.069,332.392 		"/>
		<polygon fill="#FFFFFF" points="377.909,416.002 389.862,392.1 385.999,389.893 371.462,417.842 		"/>
		<polygon fill="#FFFFFF" points="322.585,438.989 322.585,445.241 328.837,442.114 		"/>
		<polygon fill="#FFFFFF" points="323.739,433.682 323.112,434.612 326.565,438.293 331.099,440.006 331.726,439.079 
			328.36,435.452 		"/>
		<polygon fill="#FFFFFF" points="326.72,427.2 325.712,428.163 328.929,433.555 333.981,436.844 334.993,435.883 331.866,430.581 
					"/>
		<polygon fill="#FFFFFF" points="330.495,422.227 329.364,423.299 332.94,429.334 338.581,433.022 339.71,431.95 336.231,426.018 
					"/>
		<polygon fill="#FFFFFF" points="335.667,416.831 334.538,417.901 338.114,423.936 343.751,427.624 344.882,426.553 
			341.403,420.622 		"/>
		<polygon fill="#FFFFFF" points="340.839,412.446 339.71,413.516 343.286,419.553 348.923,423.239 350.052,422.167 
			346.575,416.237 		"/>
		<polygon fill="#FFFFFF" points="346.011,407.049 344.882,408.12 348.458,414.157 354.095,417.842 355.224,416.772 351.747,410.84 
					"/>
		<polygon fill="#FFFFFF" points="388.108,367.273 387.55,368.729 393.382,372.633 400.06,373.529 400.614,372.077 394.921,368.224 
					"/>
		<polygon fill="#FFFFFF" points="388.327,373.32 387.892,374.456 392.444,377.507 397.659,378.207 398.095,377.071 
			393.647,374.062 		"/>
		<polygon fill="#FFFFFF" points="392.392,382.536 392.981,383.859 397.616,383.381 400.903,380.332 400.313,379.011 
			395.765,379.45 		"/>
		<polygon fill="#FFFFFF" points="392.483,410.26 391.981,411.618 395.632,414.514 400.112,414.629 400.614,413.272 
			397.054,410.409 		"/>
		<polygon fill="#FFFFFF" points="385.142,387.794 384.524,389.104 387.921,392.295 392.38,392.784 392.991,391.473 
			389.683,388.322 		"/>
		<polygon fill="#FFFFFF" points="381.458,378.912 382.646,379.737 386.362,376.925 387.593,372.613 386.401,371.79 
			382.741,374.524 		"/>
		<polygon fill="#FFFFFF" points="379.671,397.499 381.112,397.375 382.179,392.84 380.376,388.735 378.933,388.86 377.858,393.303 
					"/>
		<polygon fill="#FFFFFF" points="357.03,408.719 358.06,408.631 358.823,405.393 357.534,402.461 356.505,402.549 355.737,405.721 
					"/>
		<polygon fill="#FFFFFF" points="385.776,373.549 380.663,370.422 378.276,371.984 351.798,401.098 348.487,401.098 
			344.882,401.098 354.005,407.049 355.224,402.397 380.663,375.182 382.784,376.653 		"/>
		<polygon fill="#FFFFFF" points="380.663,389.893 357.862,403.87 356.579,407.049 380.663,395.042 		"/>
		<polygon fill="#FFFFFF" points="398.839,381.436 403.284,395.042 398.839,412.446 396.298,412.446 399.792,396.942 
			396.298,383.273 		"/>
		<polygon fill="#F6D256" points="432.726,350.237 426.593,359.777 450.335,346.51 430.681,340.698 		"/>
		<polygon fill="#1E1E1C" points="417.479,355.146 422.104,344.105 419.54,334.499 412.349,335.938 407.72,346.979 410.284,356.584 
					"/>
		<path fill="#FFFFFF" d="M377.632,419.45l7.189,12.988l7.172,5.074h7.523l4.898,3.5l3.848,4.371l-2.449,8.049l-0.873-6.648
			l-5.074-5.074c0,0,1.748,2.799,1.574,3.674s-2.102,4.023-2.102,4.023l-1.746-6.297l-5.25-1.75l-6.648-0.525l-14.232-19.811
			L377.632,419.45z"/>
	</g>
</g>
</svg>
